G04 MADE WITH FRITZING*
G04 WWW.FRITZING.ORG*
G04 DOUBLE SIDED*
G04 HOLES PLATED*
G04 CONTOUR ON CENTER OF CONTOUR VECTOR*
%ASAXBY*%
%FSLAX23Y23*%
%MOIN*%
%OFA0B0*%
%SFA1.0B1.0*%
%ADD10C,0.010000*%
%ADD11R,0.001000X0.001000*%
%LNSILK1*%
G90*
G70*
G54D10*
X307Y172D02*
X107Y172D01*
D02*
X107Y172D02*
X107Y72D01*
D02*
X107Y72D02*
X307Y72D01*
D02*
X307Y72D02*
X307Y172D01*
D02*
X290Y613D02*
X290Y413D01*
D02*
X290Y413D02*
X224Y413D01*
D02*
X224Y413D02*
X224Y613D01*
D02*
X224Y613D02*
X290Y613D01*
D02*
X93Y252D02*
X93Y392D01*
G54D11*
X1Y1102D02*
X424Y1102D01*
X1Y1101D02*
X424Y1101D01*
X1Y1100D02*
X424Y1100D01*
X1Y1099D02*
X424Y1099D01*
X1Y1098D02*
X424Y1098D01*
X1Y1097D02*
X424Y1097D01*
X1Y1096D02*
X424Y1096D01*
X1Y1095D02*
X424Y1095D01*
X1Y1094D02*
X8Y1094D01*
X417Y1094D02*
X424Y1094D01*
X1Y1093D02*
X8Y1093D01*
X417Y1093D02*
X424Y1093D01*
X1Y1092D02*
X8Y1092D01*
X417Y1092D02*
X424Y1092D01*
X1Y1091D02*
X8Y1091D01*
X417Y1091D02*
X424Y1091D01*
X1Y1090D02*
X8Y1090D01*
X417Y1090D02*
X424Y1090D01*
X1Y1089D02*
X8Y1089D01*
X417Y1089D02*
X424Y1089D01*
X1Y1088D02*
X8Y1088D01*
X417Y1088D02*
X424Y1088D01*
X1Y1087D02*
X8Y1087D01*
X417Y1087D02*
X424Y1087D01*
X1Y1086D02*
X8Y1086D01*
X417Y1086D02*
X424Y1086D01*
X1Y1085D02*
X8Y1085D01*
X417Y1085D02*
X424Y1085D01*
X1Y1084D02*
X8Y1084D01*
X417Y1084D02*
X424Y1084D01*
X1Y1083D02*
X8Y1083D01*
X417Y1083D02*
X424Y1083D01*
X1Y1082D02*
X8Y1082D01*
X417Y1082D02*
X424Y1082D01*
X1Y1081D02*
X8Y1081D01*
X417Y1081D02*
X424Y1081D01*
X1Y1080D02*
X8Y1080D01*
X417Y1080D02*
X424Y1080D01*
X1Y1079D02*
X8Y1079D01*
X417Y1079D02*
X424Y1079D01*
X1Y1078D02*
X8Y1078D01*
X417Y1078D02*
X424Y1078D01*
X1Y1077D02*
X8Y1077D01*
X417Y1077D02*
X424Y1077D01*
X1Y1076D02*
X8Y1076D01*
X417Y1076D02*
X424Y1076D01*
X1Y1075D02*
X8Y1075D01*
X417Y1075D02*
X424Y1075D01*
X1Y1074D02*
X8Y1074D01*
X417Y1074D02*
X424Y1074D01*
X1Y1073D02*
X8Y1073D01*
X417Y1073D02*
X424Y1073D01*
X1Y1072D02*
X8Y1072D01*
X417Y1072D02*
X424Y1072D01*
X1Y1071D02*
X8Y1071D01*
X417Y1071D02*
X424Y1071D01*
X1Y1070D02*
X8Y1070D01*
X417Y1070D02*
X424Y1070D01*
X1Y1069D02*
X8Y1069D01*
X417Y1069D02*
X424Y1069D01*
X1Y1068D02*
X8Y1068D01*
X417Y1068D02*
X424Y1068D01*
X1Y1067D02*
X8Y1067D01*
X417Y1067D02*
X424Y1067D01*
X1Y1066D02*
X8Y1066D01*
X417Y1066D02*
X424Y1066D01*
X1Y1065D02*
X8Y1065D01*
X417Y1065D02*
X424Y1065D01*
X1Y1064D02*
X8Y1064D01*
X417Y1064D02*
X424Y1064D01*
X1Y1063D02*
X8Y1063D01*
X417Y1063D02*
X424Y1063D01*
X1Y1062D02*
X8Y1062D01*
X417Y1062D02*
X424Y1062D01*
X1Y1061D02*
X8Y1061D01*
X417Y1061D02*
X424Y1061D01*
X1Y1060D02*
X8Y1060D01*
X417Y1060D02*
X424Y1060D01*
X1Y1059D02*
X8Y1059D01*
X417Y1059D02*
X424Y1059D01*
X1Y1058D02*
X8Y1058D01*
X417Y1058D02*
X424Y1058D01*
X1Y1057D02*
X8Y1057D01*
X417Y1057D02*
X424Y1057D01*
X1Y1056D02*
X8Y1056D01*
X417Y1056D02*
X424Y1056D01*
X1Y1055D02*
X8Y1055D01*
X417Y1055D02*
X424Y1055D01*
X1Y1054D02*
X8Y1054D01*
X417Y1054D02*
X424Y1054D01*
X1Y1053D02*
X8Y1053D01*
X417Y1053D02*
X424Y1053D01*
X1Y1052D02*
X8Y1052D01*
X417Y1052D02*
X424Y1052D01*
X1Y1051D02*
X8Y1051D01*
X417Y1051D02*
X424Y1051D01*
X1Y1050D02*
X8Y1050D01*
X417Y1050D02*
X424Y1050D01*
X1Y1049D02*
X8Y1049D01*
X417Y1049D02*
X424Y1049D01*
X1Y1048D02*
X8Y1048D01*
X417Y1048D02*
X424Y1048D01*
X1Y1047D02*
X8Y1047D01*
X417Y1047D02*
X424Y1047D01*
X1Y1046D02*
X8Y1046D01*
X417Y1046D02*
X424Y1046D01*
X1Y1045D02*
X8Y1045D01*
X417Y1045D02*
X424Y1045D01*
X1Y1044D02*
X8Y1044D01*
X417Y1044D02*
X424Y1044D01*
X1Y1043D02*
X8Y1043D01*
X417Y1043D02*
X424Y1043D01*
X1Y1042D02*
X8Y1042D01*
X417Y1042D02*
X424Y1042D01*
X1Y1041D02*
X8Y1041D01*
X417Y1041D02*
X424Y1041D01*
X1Y1040D02*
X8Y1040D01*
X417Y1040D02*
X424Y1040D01*
X1Y1039D02*
X8Y1039D01*
X417Y1039D02*
X424Y1039D01*
X1Y1038D02*
X8Y1038D01*
X417Y1038D02*
X424Y1038D01*
X1Y1037D02*
X8Y1037D01*
X417Y1037D02*
X424Y1037D01*
X1Y1036D02*
X8Y1036D01*
X417Y1036D02*
X424Y1036D01*
X1Y1035D02*
X8Y1035D01*
X417Y1035D02*
X424Y1035D01*
X1Y1034D02*
X8Y1034D01*
X417Y1034D02*
X424Y1034D01*
X1Y1033D02*
X8Y1033D01*
X417Y1033D02*
X424Y1033D01*
X1Y1032D02*
X8Y1032D01*
X417Y1032D02*
X424Y1032D01*
X1Y1031D02*
X8Y1031D01*
X417Y1031D02*
X424Y1031D01*
X1Y1030D02*
X8Y1030D01*
X417Y1030D02*
X424Y1030D01*
X1Y1029D02*
X8Y1029D01*
X417Y1029D02*
X424Y1029D01*
X1Y1028D02*
X8Y1028D01*
X417Y1028D02*
X424Y1028D01*
X1Y1027D02*
X8Y1027D01*
X417Y1027D02*
X424Y1027D01*
X1Y1026D02*
X8Y1026D01*
X417Y1026D02*
X424Y1026D01*
X1Y1025D02*
X8Y1025D01*
X417Y1025D02*
X424Y1025D01*
X1Y1024D02*
X8Y1024D01*
X417Y1024D02*
X424Y1024D01*
X1Y1023D02*
X8Y1023D01*
X417Y1023D02*
X424Y1023D01*
X1Y1022D02*
X8Y1022D01*
X417Y1022D02*
X424Y1022D01*
X1Y1021D02*
X8Y1021D01*
X417Y1021D02*
X424Y1021D01*
X1Y1020D02*
X8Y1020D01*
X417Y1020D02*
X424Y1020D01*
X1Y1019D02*
X8Y1019D01*
X417Y1019D02*
X424Y1019D01*
X1Y1018D02*
X8Y1018D01*
X417Y1018D02*
X424Y1018D01*
X1Y1017D02*
X8Y1017D01*
X417Y1017D02*
X424Y1017D01*
X1Y1016D02*
X8Y1016D01*
X417Y1016D02*
X424Y1016D01*
X1Y1015D02*
X8Y1015D01*
X417Y1015D02*
X424Y1015D01*
X1Y1014D02*
X8Y1014D01*
X417Y1014D02*
X424Y1014D01*
X1Y1013D02*
X8Y1013D01*
X417Y1013D02*
X424Y1013D01*
X1Y1012D02*
X8Y1012D01*
X417Y1012D02*
X424Y1012D01*
X1Y1011D02*
X8Y1011D01*
X417Y1011D02*
X424Y1011D01*
X1Y1010D02*
X8Y1010D01*
X417Y1010D02*
X424Y1010D01*
X1Y1009D02*
X8Y1009D01*
X417Y1009D02*
X424Y1009D01*
X1Y1008D02*
X8Y1008D01*
X417Y1008D02*
X424Y1008D01*
X1Y1007D02*
X8Y1007D01*
X417Y1007D02*
X424Y1007D01*
X1Y1006D02*
X8Y1006D01*
X417Y1006D02*
X424Y1006D01*
X1Y1005D02*
X8Y1005D01*
X417Y1005D02*
X424Y1005D01*
X1Y1004D02*
X8Y1004D01*
X417Y1004D02*
X424Y1004D01*
X1Y1003D02*
X8Y1003D01*
X417Y1003D02*
X424Y1003D01*
X1Y1002D02*
X8Y1002D01*
X417Y1002D02*
X424Y1002D01*
X1Y1001D02*
X8Y1001D01*
X417Y1001D02*
X424Y1001D01*
X1Y1000D02*
X8Y1000D01*
X417Y1000D02*
X424Y1000D01*
X1Y999D02*
X8Y999D01*
X417Y999D02*
X424Y999D01*
X1Y998D02*
X8Y998D01*
X417Y998D02*
X424Y998D01*
X1Y997D02*
X8Y997D01*
X417Y997D02*
X424Y997D01*
X1Y996D02*
X8Y996D01*
X417Y996D02*
X424Y996D01*
X1Y995D02*
X8Y995D01*
X417Y995D02*
X424Y995D01*
X1Y994D02*
X8Y994D01*
X417Y994D02*
X424Y994D01*
X1Y993D02*
X8Y993D01*
X417Y993D02*
X424Y993D01*
X1Y992D02*
X8Y992D01*
X417Y992D02*
X424Y992D01*
X1Y991D02*
X8Y991D01*
X417Y991D02*
X424Y991D01*
X1Y990D02*
X8Y990D01*
X417Y990D02*
X424Y990D01*
X1Y989D02*
X8Y989D01*
X417Y989D02*
X424Y989D01*
X1Y988D02*
X8Y988D01*
X417Y988D02*
X424Y988D01*
X1Y987D02*
X8Y987D01*
X417Y987D02*
X424Y987D01*
X1Y986D02*
X8Y986D01*
X417Y986D02*
X424Y986D01*
X1Y985D02*
X8Y985D01*
X417Y985D02*
X424Y985D01*
X1Y984D02*
X8Y984D01*
X417Y984D02*
X424Y984D01*
X1Y983D02*
X8Y983D01*
X417Y983D02*
X424Y983D01*
X1Y982D02*
X8Y982D01*
X417Y982D02*
X424Y982D01*
X1Y981D02*
X8Y981D01*
X417Y981D02*
X424Y981D01*
X1Y980D02*
X8Y980D01*
X417Y980D02*
X424Y980D01*
X1Y979D02*
X8Y979D01*
X417Y979D02*
X424Y979D01*
X1Y978D02*
X8Y978D01*
X417Y978D02*
X424Y978D01*
X1Y977D02*
X8Y977D01*
X417Y977D02*
X424Y977D01*
X1Y976D02*
X8Y976D01*
X417Y976D02*
X424Y976D01*
X1Y975D02*
X8Y975D01*
X417Y975D02*
X424Y975D01*
X1Y974D02*
X8Y974D01*
X417Y974D02*
X424Y974D01*
X1Y973D02*
X8Y973D01*
X417Y973D02*
X424Y973D01*
X1Y972D02*
X8Y972D01*
X417Y972D02*
X424Y972D01*
X1Y971D02*
X8Y971D01*
X417Y971D02*
X424Y971D01*
X1Y970D02*
X8Y970D01*
X417Y970D02*
X424Y970D01*
X1Y969D02*
X8Y969D01*
X417Y969D02*
X424Y969D01*
X1Y968D02*
X8Y968D01*
X417Y968D02*
X424Y968D01*
X1Y967D02*
X8Y967D01*
X417Y967D02*
X424Y967D01*
X1Y966D02*
X8Y966D01*
X417Y966D02*
X424Y966D01*
X1Y965D02*
X8Y965D01*
X417Y965D02*
X424Y965D01*
X1Y964D02*
X8Y964D01*
X417Y964D02*
X424Y964D01*
X1Y963D02*
X8Y963D01*
X417Y963D02*
X424Y963D01*
X1Y962D02*
X8Y962D01*
X417Y962D02*
X424Y962D01*
X1Y961D02*
X8Y961D01*
X417Y961D02*
X424Y961D01*
X1Y960D02*
X8Y960D01*
X417Y960D02*
X424Y960D01*
X1Y959D02*
X8Y959D01*
X417Y959D02*
X424Y959D01*
X1Y958D02*
X8Y958D01*
X417Y958D02*
X424Y958D01*
X1Y957D02*
X8Y957D01*
X417Y957D02*
X424Y957D01*
X1Y956D02*
X8Y956D01*
X417Y956D02*
X424Y956D01*
X1Y955D02*
X8Y955D01*
X417Y955D02*
X424Y955D01*
X1Y954D02*
X8Y954D01*
X417Y954D02*
X424Y954D01*
X1Y953D02*
X8Y953D01*
X417Y953D02*
X424Y953D01*
X1Y952D02*
X8Y952D01*
X417Y952D02*
X424Y952D01*
X1Y951D02*
X8Y951D01*
X417Y951D02*
X424Y951D01*
X1Y950D02*
X8Y950D01*
X417Y950D02*
X424Y950D01*
X1Y949D02*
X8Y949D01*
X417Y949D02*
X424Y949D01*
X1Y948D02*
X8Y948D01*
X417Y948D02*
X424Y948D01*
X1Y947D02*
X8Y947D01*
X417Y947D02*
X424Y947D01*
X1Y946D02*
X8Y946D01*
X417Y946D02*
X424Y946D01*
X1Y945D02*
X8Y945D01*
X417Y945D02*
X424Y945D01*
X1Y944D02*
X8Y944D01*
X417Y944D02*
X424Y944D01*
X1Y943D02*
X8Y943D01*
X417Y943D02*
X424Y943D01*
X1Y942D02*
X8Y942D01*
X417Y942D02*
X424Y942D01*
X1Y941D02*
X8Y941D01*
X417Y941D02*
X424Y941D01*
X1Y940D02*
X8Y940D01*
X417Y940D02*
X424Y940D01*
X1Y939D02*
X8Y939D01*
X417Y939D02*
X424Y939D01*
X1Y938D02*
X8Y938D01*
X417Y938D02*
X424Y938D01*
X1Y937D02*
X8Y937D01*
X417Y937D02*
X424Y937D01*
X1Y936D02*
X8Y936D01*
X417Y936D02*
X424Y936D01*
X1Y935D02*
X8Y935D01*
X417Y935D02*
X424Y935D01*
X1Y934D02*
X8Y934D01*
X417Y934D02*
X424Y934D01*
X1Y933D02*
X8Y933D01*
X417Y933D02*
X424Y933D01*
X1Y932D02*
X8Y932D01*
X417Y932D02*
X424Y932D01*
X1Y931D02*
X8Y931D01*
X417Y931D02*
X424Y931D01*
X1Y930D02*
X8Y930D01*
X417Y930D02*
X424Y930D01*
X1Y929D02*
X8Y929D01*
X417Y929D02*
X424Y929D01*
X1Y928D02*
X8Y928D01*
X417Y928D02*
X424Y928D01*
X1Y927D02*
X8Y927D01*
X417Y927D02*
X424Y927D01*
X1Y926D02*
X8Y926D01*
X417Y926D02*
X424Y926D01*
X1Y925D02*
X8Y925D01*
X417Y925D02*
X424Y925D01*
X1Y924D02*
X8Y924D01*
X417Y924D02*
X424Y924D01*
X1Y923D02*
X8Y923D01*
X417Y923D02*
X424Y923D01*
X1Y922D02*
X8Y922D01*
X417Y922D02*
X424Y922D01*
X1Y921D02*
X8Y921D01*
X417Y921D02*
X424Y921D01*
X1Y920D02*
X8Y920D01*
X417Y920D02*
X424Y920D01*
X1Y919D02*
X8Y919D01*
X417Y919D02*
X424Y919D01*
X1Y918D02*
X8Y918D01*
X417Y918D02*
X424Y918D01*
X1Y917D02*
X8Y917D01*
X417Y917D02*
X424Y917D01*
X1Y916D02*
X8Y916D01*
X417Y916D02*
X424Y916D01*
X1Y915D02*
X8Y915D01*
X417Y915D02*
X424Y915D01*
X1Y914D02*
X8Y914D01*
X417Y914D02*
X424Y914D01*
X1Y913D02*
X8Y913D01*
X417Y913D02*
X424Y913D01*
X1Y912D02*
X8Y912D01*
X417Y912D02*
X424Y912D01*
X1Y911D02*
X8Y911D01*
X417Y911D02*
X424Y911D01*
X1Y910D02*
X8Y910D01*
X417Y910D02*
X424Y910D01*
X1Y909D02*
X8Y909D01*
X417Y909D02*
X424Y909D01*
X1Y908D02*
X8Y908D01*
X417Y908D02*
X424Y908D01*
X1Y907D02*
X8Y907D01*
X417Y907D02*
X424Y907D01*
X1Y906D02*
X8Y906D01*
X417Y906D02*
X424Y906D01*
X1Y905D02*
X8Y905D01*
X417Y905D02*
X424Y905D01*
X1Y904D02*
X8Y904D01*
X417Y904D02*
X424Y904D01*
X1Y903D02*
X8Y903D01*
X417Y903D02*
X424Y903D01*
X1Y902D02*
X8Y902D01*
X417Y902D02*
X424Y902D01*
X1Y901D02*
X8Y901D01*
X417Y901D02*
X424Y901D01*
X1Y900D02*
X8Y900D01*
X417Y900D02*
X424Y900D01*
X1Y899D02*
X8Y899D01*
X417Y899D02*
X424Y899D01*
X1Y898D02*
X8Y898D01*
X417Y898D02*
X424Y898D01*
X1Y897D02*
X8Y897D01*
X417Y897D02*
X424Y897D01*
X1Y896D02*
X8Y896D01*
X417Y896D02*
X424Y896D01*
X1Y895D02*
X8Y895D01*
X417Y895D02*
X424Y895D01*
X1Y894D02*
X8Y894D01*
X417Y894D02*
X424Y894D01*
X1Y893D02*
X8Y893D01*
X417Y893D02*
X424Y893D01*
X1Y892D02*
X8Y892D01*
X417Y892D02*
X424Y892D01*
X1Y891D02*
X8Y891D01*
X417Y891D02*
X424Y891D01*
X1Y890D02*
X8Y890D01*
X417Y890D02*
X424Y890D01*
X1Y889D02*
X8Y889D01*
X417Y889D02*
X424Y889D01*
X1Y888D02*
X8Y888D01*
X417Y888D02*
X424Y888D01*
X1Y887D02*
X8Y887D01*
X417Y887D02*
X424Y887D01*
X1Y886D02*
X8Y886D01*
X417Y886D02*
X424Y886D01*
X1Y885D02*
X8Y885D01*
X417Y885D02*
X424Y885D01*
X1Y884D02*
X8Y884D01*
X417Y884D02*
X424Y884D01*
X1Y883D02*
X8Y883D01*
X417Y883D02*
X424Y883D01*
X1Y882D02*
X8Y882D01*
X417Y882D02*
X424Y882D01*
X1Y881D02*
X8Y881D01*
X417Y881D02*
X424Y881D01*
X1Y880D02*
X8Y880D01*
X417Y880D02*
X424Y880D01*
X1Y879D02*
X8Y879D01*
X417Y879D02*
X424Y879D01*
X1Y878D02*
X8Y878D01*
X417Y878D02*
X424Y878D01*
X1Y877D02*
X8Y877D01*
X417Y877D02*
X424Y877D01*
X1Y876D02*
X8Y876D01*
X417Y876D02*
X424Y876D01*
X1Y875D02*
X8Y875D01*
X417Y875D02*
X424Y875D01*
X1Y874D02*
X8Y874D01*
X417Y874D02*
X424Y874D01*
X1Y873D02*
X8Y873D01*
X417Y873D02*
X424Y873D01*
X1Y872D02*
X8Y872D01*
X417Y872D02*
X424Y872D01*
X1Y871D02*
X8Y871D01*
X417Y871D02*
X424Y871D01*
X1Y870D02*
X8Y870D01*
X417Y870D02*
X424Y870D01*
X1Y869D02*
X8Y869D01*
X417Y869D02*
X424Y869D01*
X1Y868D02*
X8Y868D01*
X417Y868D02*
X424Y868D01*
X1Y867D02*
X8Y867D01*
X417Y867D02*
X424Y867D01*
X1Y866D02*
X8Y866D01*
X417Y866D02*
X424Y866D01*
X1Y865D02*
X8Y865D01*
X417Y865D02*
X424Y865D01*
X1Y864D02*
X8Y864D01*
X417Y864D02*
X424Y864D01*
X1Y863D02*
X8Y863D01*
X417Y863D02*
X424Y863D01*
X1Y862D02*
X8Y862D01*
X417Y862D02*
X424Y862D01*
X1Y861D02*
X8Y861D01*
X417Y861D02*
X424Y861D01*
X1Y860D02*
X8Y860D01*
X417Y860D02*
X424Y860D01*
X1Y859D02*
X8Y859D01*
X417Y859D02*
X424Y859D01*
X1Y858D02*
X8Y858D01*
X417Y858D02*
X424Y858D01*
X1Y857D02*
X8Y857D01*
X417Y857D02*
X424Y857D01*
X1Y856D02*
X8Y856D01*
X417Y856D02*
X424Y856D01*
X1Y855D02*
X8Y855D01*
X417Y855D02*
X424Y855D01*
X1Y854D02*
X8Y854D01*
X417Y854D02*
X424Y854D01*
X1Y853D02*
X8Y853D01*
X417Y853D02*
X424Y853D01*
X1Y852D02*
X8Y852D01*
X417Y852D02*
X424Y852D01*
X1Y851D02*
X8Y851D01*
X417Y851D02*
X424Y851D01*
X1Y850D02*
X8Y850D01*
X417Y850D02*
X424Y850D01*
X1Y849D02*
X8Y849D01*
X417Y849D02*
X424Y849D01*
X1Y848D02*
X8Y848D01*
X417Y848D02*
X424Y848D01*
X1Y847D02*
X8Y847D01*
X417Y847D02*
X424Y847D01*
X1Y846D02*
X8Y846D01*
X417Y846D02*
X424Y846D01*
X1Y845D02*
X8Y845D01*
X417Y845D02*
X424Y845D01*
X1Y844D02*
X8Y844D01*
X417Y844D02*
X424Y844D01*
X1Y843D02*
X8Y843D01*
X417Y843D02*
X424Y843D01*
X1Y842D02*
X8Y842D01*
X417Y842D02*
X424Y842D01*
X1Y841D02*
X8Y841D01*
X417Y841D02*
X424Y841D01*
X1Y840D02*
X8Y840D01*
X417Y840D02*
X424Y840D01*
X1Y839D02*
X8Y839D01*
X417Y839D02*
X424Y839D01*
X1Y838D02*
X8Y838D01*
X417Y838D02*
X424Y838D01*
X1Y837D02*
X8Y837D01*
X417Y837D02*
X424Y837D01*
X1Y836D02*
X8Y836D01*
X417Y836D02*
X424Y836D01*
X1Y835D02*
X8Y835D01*
X417Y835D02*
X424Y835D01*
X1Y834D02*
X8Y834D01*
X417Y834D02*
X424Y834D01*
X1Y833D02*
X8Y833D01*
X417Y833D02*
X424Y833D01*
X1Y832D02*
X8Y832D01*
X417Y832D02*
X424Y832D01*
X1Y831D02*
X8Y831D01*
X417Y831D02*
X424Y831D01*
X1Y830D02*
X8Y830D01*
X417Y830D02*
X424Y830D01*
X1Y829D02*
X8Y829D01*
X417Y829D02*
X424Y829D01*
X1Y828D02*
X8Y828D01*
X417Y828D02*
X424Y828D01*
X1Y827D02*
X8Y827D01*
X417Y827D02*
X424Y827D01*
X1Y826D02*
X8Y826D01*
X417Y826D02*
X424Y826D01*
X1Y825D02*
X8Y825D01*
X417Y825D02*
X424Y825D01*
X1Y824D02*
X8Y824D01*
X417Y824D02*
X424Y824D01*
X1Y823D02*
X8Y823D01*
X417Y823D02*
X424Y823D01*
X1Y822D02*
X8Y822D01*
X417Y822D02*
X424Y822D01*
X1Y821D02*
X8Y821D01*
X417Y821D02*
X424Y821D01*
X1Y820D02*
X8Y820D01*
X417Y820D02*
X424Y820D01*
X1Y819D02*
X8Y819D01*
X417Y819D02*
X424Y819D01*
X1Y818D02*
X8Y818D01*
X417Y818D02*
X424Y818D01*
X1Y817D02*
X8Y817D01*
X417Y817D02*
X424Y817D01*
X1Y816D02*
X8Y816D01*
X417Y816D02*
X424Y816D01*
X1Y815D02*
X8Y815D01*
X417Y815D02*
X424Y815D01*
X1Y814D02*
X8Y814D01*
X417Y814D02*
X424Y814D01*
X1Y813D02*
X8Y813D01*
X417Y813D02*
X424Y813D01*
X1Y812D02*
X8Y812D01*
X417Y812D02*
X424Y812D01*
X1Y811D02*
X8Y811D01*
X417Y811D02*
X424Y811D01*
X1Y810D02*
X8Y810D01*
X417Y810D02*
X424Y810D01*
X1Y809D02*
X8Y809D01*
X417Y809D02*
X424Y809D01*
X1Y808D02*
X8Y808D01*
X417Y808D02*
X424Y808D01*
X1Y807D02*
X8Y807D01*
X417Y807D02*
X424Y807D01*
X1Y806D02*
X8Y806D01*
X417Y806D02*
X424Y806D01*
X1Y805D02*
X8Y805D01*
X417Y805D02*
X424Y805D01*
X1Y804D02*
X8Y804D01*
X417Y804D02*
X424Y804D01*
X1Y803D02*
X8Y803D01*
X417Y803D02*
X424Y803D01*
X1Y802D02*
X8Y802D01*
X417Y802D02*
X424Y802D01*
X1Y801D02*
X8Y801D01*
X417Y801D02*
X424Y801D01*
X1Y800D02*
X8Y800D01*
X417Y800D02*
X424Y800D01*
X1Y799D02*
X8Y799D01*
X417Y799D02*
X424Y799D01*
X1Y798D02*
X8Y798D01*
X417Y798D02*
X424Y798D01*
X1Y797D02*
X8Y797D01*
X417Y797D02*
X424Y797D01*
X1Y796D02*
X8Y796D01*
X417Y796D02*
X424Y796D01*
X1Y795D02*
X8Y795D01*
X417Y795D02*
X424Y795D01*
X1Y794D02*
X8Y794D01*
X417Y794D02*
X424Y794D01*
X1Y793D02*
X8Y793D01*
X417Y793D02*
X424Y793D01*
X1Y792D02*
X8Y792D01*
X417Y792D02*
X424Y792D01*
X1Y791D02*
X8Y791D01*
X417Y791D02*
X424Y791D01*
X1Y790D02*
X8Y790D01*
X417Y790D02*
X424Y790D01*
X1Y789D02*
X8Y789D01*
X417Y789D02*
X424Y789D01*
X1Y788D02*
X8Y788D01*
X417Y788D02*
X424Y788D01*
X1Y787D02*
X8Y787D01*
X417Y787D02*
X424Y787D01*
X1Y786D02*
X8Y786D01*
X417Y786D02*
X424Y786D01*
X1Y785D02*
X8Y785D01*
X417Y785D02*
X424Y785D01*
X1Y784D02*
X8Y784D01*
X417Y784D02*
X424Y784D01*
X1Y783D02*
X8Y783D01*
X417Y783D02*
X424Y783D01*
X1Y782D02*
X8Y782D01*
X417Y782D02*
X424Y782D01*
X1Y781D02*
X8Y781D01*
X417Y781D02*
X424Y781D01*
X1Y780D02*
X8Y780D01*
X417Y780D02*
X424Y780D01*
X1Y779D02*
X8Y779D01*
X417Y779D02*
X424Y779D01*
X1Y778D02*
X8Y778D01*
X417Y778D02*
X424Y778D01*
X1Y777D02*
X8Y777D01*
X417Y777D02*
X424Y777D01*
X1Y776D02*
X8Y776D01*
X417Y776D02*
X424Y776D01*
X1Y775D02*
X8Y775D01*
X417Y775D02*
X424Y775D01*
X1Y774D02*
X8Y774D01*
X417Y774D02*
X424Y774D01*
X1Y773D02*
X8Y773D01*
X417Y773D02*
X424Y773D01*
X1Y772D02*
X8Y772D01*
X417Y772D02*
X424Y772D01*
X1Y771D02*
X8Y771D01*
X417Y771D02*
X424Y771D01*
X1Y770D02*
X8Y770D01*
X417Y770D02*
X424Y770D01*
X1Y769D02*
X8Y769D01*
X417Y769D02*
X424Y769D01*
X1Y768D02*
X8Y768D01*
X417Y768D02*
X424Y768D01*
X1Y767D02*
X8Y767D01*
X417Y767D02*
X424Y767D01*
X1Y766D02*
X8Y766D01*
X417Y766D02*
X424Y766D01*
X1Y765D02*
X8Y765D01*
X417Y765D02*
X424Y765D01*
X1Y764D02*
X8Y764D01*
X417Y764D02*
X424Y764D01*
X1Y763D02*
X8Y763D01*
X417Y763D02*
X424Y763D01*
X1Y762D02*
X8Y762D01*
X417Y762D02*
X424Y762D01*
X1Y761D02*
X8Y761D01*
X417Y761D02*
X424Y761D01*
X1Y760D02*
X8Y760D01*
X417Y760D02*
X424Y760D01*
X1Y759D02*
X8Y759D01*
X417Y759D02*
X424Y759D01*
X1Y758D02*
X8Y758D01*
X417Y758D02*
X424Y758D01*
X1Y757D02*
X8Y757D01*
X417Y757D02*
X424Y757D01*
X1Y756D02*
X8Y756D01*
X417Y756D02*
X424Y756D01*
X1Y755D02*
X8Y755D01*
X417Y755D02*
X424Y755D01*
X1Y754D02*
X8Y754D01*
X417Y754D02*
X424Y754D01*
X1Y753D02*
X8Y753D01*
X417Y753D02*
X424Y753D01*
X1Y752D02*
X8Y752D01*
X417Y752D02*
X424Y752D01*
X1Y751D02*
X8Y751D01*
X417Y751D02*
X424Y751D01*
X1Y750D02*
X8Y750D01*
X417Y750D02*
X424Y750D01*
X1Y749D02*
X8Y749D01*
X417Y749D02*
X424Y749D01*
X1Y748D02*
X8Y748D01*
X417Y748D02*
X424Y748D01*
X1Y747D02*
X8Y747D01*
X417Y747D02*
X424Y747D01*
X1Y746D02*
X8Y746D01*
X417Y746D02*
X424Y746D01*
X1Y745D02*
X8Y745D01*
X417Y745D02*
X424Y745D01*
X1Y744D02*
X8Y744D01*
X417Y744D02*
X424Y744D01*
X1Y743D02*
X8Y743D01*
X417Y743D02*
X424Y743D01*
X1Y742D02*
X8Y742D01*
X417Y742D02*
X424Y742D01*
X1Y741D02*
X8Y741D01*
X417Y741D02*
X424Y741D01*
X1Y740D02*
X8Y740D01*
X417Y740D02*
X424Y740D01*
X1Y739D02*
X8Y739D01*
X417Y739D02*
X424Y739D01*
X1Y738D02*
X8Y738D01*
X417Y738D02*
X424Y738D01*
X1Y737D02*
X8Y737D01*
X417Y737D02*
X424Y737D01*
X1Y736D02*
X8Y736D01*
X417Y736D02*
X424Y736D01*
X1Y735D02*
X8Y735D01*
X417Y735D02*
X424Y735D01*
X1Y734D02*
X8Y734D01*
X417Y734D02*
X424Y734D01*
X1Y733D02*
X8Y733D01*
X417Y733D02*
X424Y733D01*
X1Y732D02*
X8Y732D01*
X417Y732D02*
X424Y732D01*
X1Y731D02*
X8Y731D01*
X417Y731D02*
X424Y731D01*
X1Y730D02*
X8Y730D01*
X417Y730D02*
X424Y730D01*
X1Y729D02*
X8Y729D01*
X417Y729D02*
X424Y729D01*
X1Y728D02*
X8Y728D01*
X417Y728D02*
X424Y728D01*
X1Y727D02*
X8Y727D01*
X417Y727D02*
X424Y727D01*
X1Y726D02*
X8Y726D01*
X417Y726D02*
X424Y726D01*
X1Y725D02*
X8Y725D01*
X417Y725D02*
X424Y725D01*
X1Y724D02*
X8Y724D01*
X417Y724D02*
X424Y724D01*
X1Y723D02*
X8Y723D01*
X417Y723D02*
X424Y723D01*
X1Y722D02*
X8Y722D01*
X417Y722D02*
X424Y722D01*
X1Y721D02*
X8Y721D01*
X417Y721D02*
X424Y721D01*
X1Y720D02*
X8Y720D01*
X417Y720D02*
X424Y720D01*
X1Y719D02*
X8Y719D01*
X417Y719D02*
X424Y719D01*
X1Y718D02*
X8Y718D01*
X417Y718D02*
X424Y718D01*
X1Y717D02*
X8Y717D01*
X417Y717D02*
X424Y717D01*
X1Y716D02*
X8Y716D01*
X417Y716D02*
X424Y716D01*
X1Y715D02*
X8Y715D01*
X417Y715D02*
X424Y715D01*
X1Y714D02*
X8Y714D01*
X417Y714D02*
X424Y714D01*
X1Y713D02*
X8Y713D01*
X417Y713D02*
X424Y713D01*
X1Y712D02*
X8Y712D01*
X417Y712D02*
X424Y712D01*
X1Y711D02*
X8Y711D01*
X417Y711D02*
X424Y711D01*
X1Y710D02*
X8Y710D01*
X417Y710D02*
X424Y710D01*
X1Y709D02*
X8Y709D01*
X417Y709D02*
X424Y709D01*
X1Y708D02*
X8Y708D01*
X417Y708D02*
X424Y708D01*
X1Y707D02*
X8Y707D01*
X417Y707D02*
X424Y707D01*
X1Y706D02*
X8Y706D01*
X417Y706D02*
X424Y706D01*
X1Y705D02*
X8Y705D01*
X417Y705D02*
X424Y705D01*
X1Y704D02*
X8Y704D01*
X417Y704D02*
X424Y704D01*
X1Y703D02*
X8Y703D01*
X417Y703D02*
X424Y703D01*
X1Y702D02*
X8Y702D01*
X417Y702D02*
X424Y702D01*
X1Y701D02*
X8Y701D01*
X417Y701D02*
X424Y701D01*
X1Y700D02*
X8Y700D01*
X417Y700D02*
X424Y700D01*
X1Y699D02*
X8Y699D01*
X417Y699D02*
X424Y699D01*
X1Y698D02*
X8Y698D01*
X417Y698D02*
X424Y698D01*
X1Y697D02*
X8Y697D01*
X417Y697D02*
X424Y697D01*
X1Y696D02*
X8Y696D01*
X417Y696D02*
X424Y696D01*
X1Y695D02*
X8Y695D01*
X417Y695D02*
X424Y695D01*
X1Y694D02*
X8Y694D01*
X417Y694D02*
X424Y694D01*
X1Y693D02*
X8Y693D01*
X417Y693D02*
X424Y693D01*
X1Y692D02*
X8Y692D01*
X417Y692D02*
X424Y692D01*
X1Y691D02*
X8Y691D01*
X417Y691D02*
X424Y691D01*
X1Y690D02*
X8Y690D01*
X417Y690D02*
X424Y690D01*
X1Y689D02*
X8Y689D01*
X417Y689D02*
X424Y689D01*
X1Y688D02*
X8Y688D01*
X417Y688D02*
X424Y688D01*
X1Y687D02*
X8Y687D01*
X417Y687D02*
X424Y687D01*
X1Y686D02*
X8Y686D01*
X417Y686D02*
X424Y686D01*
X1Y685D02*
X8Y685D01*
X417Y685D02*
X424Y685D01*
X1Y684D02*
X8Y684D01*
X417Y684D02*
X424Y684D01*
X1Y683D02*
X8Y683D01*
X417Y683D02*
X424Y683D01*
X1Y682D02*
X8Y682D01*
X417Y682D02*
X424Y682D01*
X1Y681D02*
X8Y681D01*
X417Y681D02*
X424Y681D01*
X1Y680D02*
X8Y680D01*
X253Y680D02*
X254Y680D01*
X261Y680D02*
X262Y680D01*
X417Y680D02*
X424Y680D01*
X1Y679D02*
X8Y679D01*
X253Y679D02*
X262Y679D01*
X417Y679D02*
X424Y679D01*
X1Y678D02*
X8Y678D01*
X253Y678D02*
X262Y678D01*
X417Y678D02*
X424Y678D01*
X1Y677D02*
X8Y677D01*
X253Y677D02*
X262Y677D01*
X417Y677D02*
X424Y677D01*
X1Y676D02*
X8Y676D01*
X253Y676D02*
X262Y676D01*
X417Y676D02*
X424Y676D01*
X1Y675D02*
X8Y675D01*
X253Y675D02*
X262Y675D01*
X417Y675D02*
X424Y675D01*
X1Y674D02*
X8Y674D01*
X253Y674D02*
X262Y674D01*
X417Y674D02*
X424Y674D01*
X1Y673D02*
X8Y673D01*
X253Y673D02*
X262Y673D01*
X417Y673D02*
X424Y673D01*
X1Y672D02*
X8Y672D01*
X253Y672D02*
X262Y672D01*
X417Y672D02*
X424Y672D01*
X1Y671D02*
X8Y671D01*
X253Y671D02*
X262Y671D01*
X417Y671D02*
X424Y671D01*
X1Y670D02*
X8Y670D01*
X253Y670D02*
X262Y670D01*
X417Y670D02*
X424Y670D01*
X1Y669D02*
X8Y669D01*
X253Y669D02*
X262Y669D01*
X417Y669D02*
X424Y669D01*
X1Y668D02*
X8Y668D01*
X253Y668D02*
X262Y668D01*
X417Y668D02*
X424Y668D01*
X1Y667D02*
X8Y667D01*
X253Y667D02*
X262Y667D01*
X417Y667D02*
X424Y667D01*
X1Y666D02*
X8Y666D01*
X253Y666D02*
X262Y666D01*
X417Y666D02*
X424Y666D01*
X1Y665D02*
X8Y665D01*
X253Y665D02*
X262Y665D01*
X417Y665D02*
X424Y665D01*
X1Y664D02*
X8Y664D01*
X253Y664D02*
X262Y664D01*
X417Y664D02*
X424Y664D01*
X1Y663D02*
X8Y663D01*
X253Y663D02*
X262Y663D01*
X417Y663D02*
X424Y663D01*
X1Y662D02*
X8Y662D01*
X253Y662D02*
X262Y662D01*
X417Y662D02*
X424Y662D01*
X1Y661D02*
X8Y661D01*
X253Y661D02*
X262Y661D01*
X417Y661D02*
X424Y661D01*
X1Y660D02*
X8Y660D01*
X253Y660D02*
X262Y660D01*
X417Y660D02*
X424Y660D01*
X1Y659D02*
X8Y659D01*
X253Y659D02*
X262Y659D01*
X417Y659D02*
X424Y659D01*
X1Y658D02*
X8Y658D01*
X253Y658D02*
X262Y658D01*
X417Y658D02*
X424Y658D01*
X1Y657D02*
X8Y657D01*
X253Y657D02*
X262Y657D01*
X417Y657D02*
X424Y657D01*
X1Y656D02*
X8Y656D01*
X253Y656D02*
X262Y656D01*
X417Y656D02*
X424Y656D01*
X1Y655D02*
X8Y655D01*
X253Y655D02*
X262Y655D01*
X417Y655D02*
X424Y655D01*
X1Y654D02*
X8Y654D01*
X253Y654D02*
X262Y654D01*
X417Y654D02*
X424Y654D01*
X1Y653D02*
X8Y653D01*
X253Y653D02*
X262Y653D01*
X417Y653D02*
X424Y653D01*
X1Y652D02*
X8Y652D01*
X253Y652D02*
X262Y652D01*
X417Y652D02*
X424Y652D01*
X1Y651D02*
X8Y651D01*
X253Y651D02*
X262Y651D01*
X417Y651D02*
X424Y651D01*
X1Y650D02*
X8Y650D01*
X253Y650D02*
X262Y650D01*
X417Y650D02*
X424Y650D01*
X1Y649D02*
X8Y649D01*
X253Y649D02*
X262Y649D01*
X417Y649D02*
X424Y649D01*
X1Y648D02*
X8Y648D01*
X253Y648D02*
X262Y648D01*
X417Y648D02*
X424Y648D01*
X1Y647D02*
X8Y647D01*
X253Y647D02*
X262Y647D01*
X417Y647D02*
X424Y647D01*
X1Y646D02*
X8Y646D01*
X253Y646D02*
X262Y646D01*
X417Y646D02*
X424Y646D01*
X1Y645D02*
X8Y645D01*
X253Y645D02*
X262Y645D01*
X417Y645D02*
X424Y645D01*
X1Y644D02*
X8Y644D01*
X253Y644D02*
X262Y644D01*
X417Y644D02*
X424Y644D01*
X1Y643D02*
X8Y643D01*
X253Y643D02*
X262Y643D01*
X417Y643D02*
X424Y643D01*
X1Y642D02*
X8Y642D01*
X253Y642D02*
X262Y642D01*
X417Y642D02*
X424Y642D01*
X1Y641D02*
X8Y641D01*
X253Y641D02*
X262Y641D01*
X417Y641D02*
X424Y641D01*
X1Y640D02*
X8Y640D01*
X253Y640D02*
X262Y640D01*
X417Y640D02*
X424Y640D01*
X1Y639D02*
X8Y639D01*
X253Y639D02*
X262Y639D01*
X417Y639D02*
X424Y639D01*
X1Y638D02*
X8Y638D01*
X253Y638D02*
X262Y638D01*
X417Y638D02*
X424Y638D01*
X1Y637D02*
X8Y637D01*
X253Y637D02*
X262Y637D01*
X417Y637D02*
X424Y637D01*
X1Y636D02*
X8Y636D01*
X253Y636D02*
X262Y636D01*
X417Y636D02*
X424Y636D01*
X1Y635D02*
X8Y635D01*
X253Y635D02*
X262Y635D01*
X417Y635D02*
X424Y635D01*
X1Y634D02*
X8Y634D01*
X253Y634D02*
X262Y634D01*
X417Y634D02*
X424Y634D01*
X1Y633D02*
X8Y633D01*
X253Y633D02*
X262Y633D01*
X417Y633D02*
X424Y633D01*
X1Y632D02*
X8Y632D01*
X253Y632D02*
X262Y632D01*
X417Y632D02*
X424Y632D01*
X1Y631D02*
X8Y631D01*
X253Y631D02*
X262Y631D01*
X417Y631D02*
X424Y631D01*
X1Y630D02*
X8Y630D01*
X253Y630D02*
X262Y630D01*
X417Y630D02*
X424Y630D01*
X1Y629D02*
X8Y629D01*
X253Y629D02*
X262Y629D01*
X417Y629D02*
X424Y629D01*
X1Y628D02*
X8Y628D01*
X253Y628D02*
X262Y628D01*
X417Y628D02*
X424Y628D01*
X1Y627D02*
X8Y627D01*
X253Y627D02*
X262Y627D01*
X417Y627D02*
X424Y627D01*
X1Y626D02*
X8Y626D01*
X253Y626D02*
X262Y626D01*
X417Y626D02*
X424Y626D01*
X1Y625D02*
X8Y625D01*
X253Y625D02*
X262Y625D01*
X417Y625D02*
X424Y625D01*
X1Y624D02*
X8Y624D01*
X253Y624D02*
X262Y624D01*
X417Y624D02*
X424Y624D01*
X1Y623D02*
X8Y623D01*
X253Y623D02*
X262Y623D01*
X417Y623D02*
X424Y623D01*
X1Y622D02*
X8Y622D01*
X253Y622D02*
X262Y622D01*
X417Y622D02*
X424Y622D01*
X1Y621D02*
X8Y621D01*
X253Y621D02*
X262Y621D01*
X417Y621D02*
X424Y621D01*
X1Y620D02*
X8Y620D01*
X253Y620D02*
X262Y620D01*
X417Y620D02*
X424Y620D01*
X1Y619D02*
X8Y619D01*
X253Y619D02*
X262Y619D01*
X417Y619D02*
X424Y619D01*
X1Y618D02*
X8Y618D01*
X253Y618D02*
X262Y618D01*
X417Y618D02*
X424Y618D01*
X1Y617D02*
X8Y617D01*
X253Y617D02*
X262Y617D01*
X417Y617D02*
X424Y617D01*
X1Y616D02*
X8Y616D01*
X253Y616D02*
X262Y616D01*
X417Y616D02*
X424Y616D01*
X1Y615D02*
X8Y615D01*
X253Y615D02*
X262Y615D01*
X417Y615D02*
X424Y615D01*
X1Y614D02*
X8Y614D01*
X253Y614D02*
X262Y614D01*
X417Y614D02*
X424Y614D01*
X1Y613D02*
X8Y613D01*
X253Y613D02*
X262Y613D01*
X417Y613D02*
X424Y613D01*
X1Y612D02*
X8Y612D01*
X417Y612D02*
X424Y612D01*
X1Y611D02*
X8Y611D01*
X417Y611D02*
X424Y611D01*
X1Y610D02*
X8Y610D01*
X417Y610D02*
X424Y610D01*
X1Y609D02*
X8Y609D01*
X417Y609D02*
X424Y609D01*
X1Y608D02*
X8Y608D01*
X417Y608D02*
X424Y608D01*
X1Y607D02*
X8Y607D01*
X417Y607D02*
X424Y607D01*
X1Y606D02*
X8Y606D01*
X417Y606D02*
X424Y606D01*
X1Y605D02*
X8Y605D01*
X417Y605D02*
X424Y605D01*
X1Y604D02*
X8Y604D01*
X417Y604D02*
X424Y604D01*
X1Y603D02*
X8Y603D01*
X417Y603D02*
X424Y603D01*
X1Y602D02*
X8Y602D01*
X417Y602D02*
X424Y602D01*
X1Y601D02*
X8Y601D01*
X417Y601D02*
X424Y601D01*
X1Y600D02*
X8Y600D01*
X417Y600D02*
X424Y600D01*
X1Y599D02*
X8Y599D01*
X417Y599D02*
X424Y599D01*
X1Y598D02*
X8Y598D01*
X417Y598D02*
X424Y598D01*
X1Y597D02*
X8Y597D01*
X417Y597D02*
X424Y597D01*
X1Y596D02*
X8Y596D01*
X417Y596D02*
X424Y596D01*
X1Y595D02*
X8Y595D01*
X417Y595D02*
X424Y595D01*
X1Y594D02*
X8Y594D01*
X417Y594D02*
X424Y594D01*
X1Y593D02*
X8Y593D01*
X417Y593D02*
X424Y593D01*
X1Y592D02*
X8Y592D01*
X417Y592D02*
X424Y592D01*
X1Y591D02*
X8Y591D01*
X417Y591D02*
X424Y591D01*
X1Y590D02*
X8Y590D01*
X417Y590D02*
X424Y590D01*
X1Y589D02*
X8Y589D01*
X417Y589D02*
X424Y589D01*
X1Y588D02*
X8Y588D01*
X417Y588D02*
X424Y588D01*
X1Y587D02*
X8Y587D01*
X417Y587D02*
X424Y587D01*
X1Y586D02*
X8Y586D01*
X417Y586D02*
X424Y586D01*
X1Y585D02*
X8Y585D01*
X417Y585D02*
X424Y585D01*
X1Y584D02*
X8Y584D01*
X417Y584D02*
X424Y584D01*
X1Y583D02*
X8Y583D01*
X417Y583D02*
X424Y583D01*
X1Y582D02*
X8Y582D01*
X417Y582D02*
X424Y582D01*
X1Y581D02*
X8Y581D01*
X417Y581D02*
X424Y581D01*
X1Y580D02*
X8Y580D01*
X417Y580D02*
X424Y580D01*
X1Y579D02*
X8Y579D01*
X417Y579D02*
X424Y579D01*
X1Y578D02*
X8Y578D01*
X417Y578D02*
X424Y578D01*
X1Y577D02*
X8Y577D01*
X417Y577D02*
X424Y577D01*
X1Y576D02*
X8Y576D01*
X417Y576D02*
X424Y576D01*
X1Y575D02*
X8Y575D01*
X417Y575D02*
X424Y575D01*
X1Y574D02*
X8Y574D01*
X417Y574D02*
X424Y574D01*
X1Y573D02*
X8Y573D01*
X417Y573D02*
X424Y573D01*
X1Y572D02*
X8Y572D01*
X417Y572D02*
X424Y572D01*
X1Y571D02*
X8Y571D01*
X417Y571D02*
X424Y571D01*
X1Y570D02*
X8Y570D01*
X417Y570D02*
X424Y570D01*
X1Y569D02*
X8Y569D01*
X417Y569D02*
X424Y569D01*
X1Y568D02*
X8Y568D01*
X417Y568D02*
X424Y568D01*
X1Y567D02*
X8Y567D01*
X417Y567D02*
X424Y567D01*
X1Y566D02*
X8Y566D01*
X417Y566D02*
X424Y566D01*
X1Y565D02*
X8Y565D01*
X417Y565D02*
X424Y565D01*
X1Y564D02*
X8Y564D01*
X417Y564D02*
X424Y564D01*
X1Y563D02*
X8Y563D01*
X417Y563D02*
X424Y563D01*
X1Y562D02*
X8Y562D01*
X417Y562D02*
X424Y562D01*
X1Y561D02*
X8Y561D01*
X417Y561D02*
X424Y561D01*
X1Y560D02*
X8Y560D01*
X417Y560D02*
X424Y560D01*
X1Y559D02*
X8Y559D01*
X417Y559D02*
X424Y559D01*
X1Y558D02*
X8Y558D01*
X417Y558D02*
X424Y558D01*
X1Y557D02*
X8Y557D01*
X417Y557D02*
X424Y557D01*
X1Y556D02*
X8Y556D01*
X417Y556D02*
X424Y556D01*
X1Y555D02*
X8Y555D01*
X417Y555D02*
X424Y555D01*
X1Y554D02*
X8Y554D01*
X417Y554D02*
X424Y554D01*
X1Y553D02*
X8Y553D01*
X417Y553D02*
X424Y553D01*
X1Y552D02*
X8Y552D01*
X417Y552D02*
X424Y552D01*
X1Y551D02*
X8Y551D01*
X417Y551D02*
X424Y551D01*
X1Y550D02*
X8Y550D01*
X417Y550D02*
X424Y550D01*
X1Y549D02*
X8Y549D01*
X417Y549D02*
X424Y549D01*
X1Y548D02*
X8Y548D01*
X417Y548D02*
X424Y548D01*
X1Y547D02*
X8Y547D01*
X417Y547D02*
X424Y547D01*
X1Y546D02*
X8Y546D01*
X417Y546D02*
X424Y546D01*
X1Y545D02*
X8Y545D01*
X417Y545D02*
X424Y545D01*
X1Y544D02*
X8Y544D01*
X417Y544D02*
X424Y544D01*
X1Y543D02*
X8Y543D01*
X417Y543D02*
X424Y543D01*
X1Y542D02*
X8Y542D01*
X417Y542D02*
X424Y542D01*
X1Y541D02*
X8Y541D01*
X417Y541D02*
X424Y541D01*
X1Y540D02*
X8Y540D01*
X417Y540D02*
X424Y540D01*
X1Y539D02*
X8Y539D01*
X417Y539D02*
X424Y539D01*
X1Y538D02*
X8Y538D01*
X417Y538D02*
X424Y538D01*
X1Y537D02*
X8Y537D01*
X417Y537D02*
X424Y537D01*
X1Y536D02*
X8Y536D01*
X417Y536D02*
X424Y536D01*
X1Y535D02*
X8Y535D01*
X417Y535D02*
X424Y535D01*
X1Y534D02*
X8Y534D01*
X417Y534D02*
X424Y534D01*
X1Y533D02*
X8Y533D01*
X417Y533D02*
X424Y533D01*
X1Y532D02*
X8Y532D01*
X417Y532D02*
X424Y532D01*
X1Y531D02*
X8Y531D01*
X417Y531D02*
X424Y531D01*
X1Y530D02*
X8Y530D01*
X417Y530D02*
X424Y530D01*
X1Y529D02*
X8Y529D01*
X417Y529D02*
X424Y529D01*
X1Y528D02*
X8Y528D01*
X417Y528D02*
X424Y528D01*
X1Y527D02*
X8Y527D01*
X417Y527D02*
X424Y527D01*
X1Y526D02*
X8Y526D01*
X417Y526D02*
X424Y526D01*
X1Y525D02*
X8Y525D01*
X417Y525D02*
X424Y525D01*
X1Y524D02*
X8Y524D01*
X417Y524D02*
X424Y524D01*
X1Y523D02*
X8Y523D01*
X417Y523D02*
X424Y523D01*
X1Y522D02*
X8Y522D01*
X417Y522D02*
X424Y522D01*
X1Y521D02*
X8Y521D01*
X417Y521D02*
X424Y521D01*
X1Y520D02*
X8Y520D01*
X417Y520D02*
X424Y520D01*
X1Y519D02*
X8Y519D01*
X417Y519D02*
X424Y519D01*
X1Y518D02*
X8Y518D01*
X417Y518D02*
X424Y518D01*
X1Y517D02*
X8Y517D01*
X417Y517D02*
X424Y517D01*
X1Y516D02*
X8Y516D01*
X417Y516D02*
X424Y516D01*
X1Y515D02*
X8Y515D01*
X417Y515D02*
X424Y515D01*
X1Y514D02*
X8Y514D01*
X417Y514D02*
X424Y514D01*
X1Y513D02*
X8Y513D01*
X417Y513D02*
X424Y513D01*
X1Y512D02*
X8Y512D01*
X417Y512D02*
X424Y512D01*
X1Y511D02*
X8Y511D01*
X417Y511D02*
X424Y511D01*
X1Y510D02*
X8Y510D01*
X417Y510D02*
X424Y510D01*
X1Y509D02*
X8Y509D01*
X417Y509D02*
X424Y509D01*
X1Y508D02*
X8Y508D01*
X417Y508D02*
X424Y508D01*
X1Y507D02*
X8Y507D01*
X417Y507D02*
X424Y507D01*
X1Y506D02*
X8Y506D01*
X417Y506D02*
X424Y506D01*
X1Y505D02*
X8Y505D01*
X417Y505D02*
X424Y505D01*
X1Y504D02*
X8Y504D01*
X417Y504D02*
X424Y504D01*
X1Y503D02*
X8Y503D01*
X417Y503D02*
X424Y503D01*
X1Y502D02*
X8Y502D01*
X417Y502D02*
X424Y502D01*
X1Y501D02*
X8Y501D01*
X417Y501D02*
X424Y501D01*
X1Y500D02*
X8Y500D01*
X417Y500D02*
X424Y500D01*
X1Y499D02*
X8Y499D01*
X417Y499D02*
X424Y499D01*
X1Y498D02*
X8Y498D01*
X417Y498D02*
X424Y498D01*
X1Y497D02*
X8Y497D01*
X417Y497D02*
X424Y497D01*
X1Y496D02*
X8Y496D01*
X417Y496D02*
X424Y496D01*
X1Y495D02*
X8Y495D01*
X417Y495D02*
X424Y495D01*
X1Y494D02*
X8Y494D01*
X417Y494D02*
X424Y494D01*
X1Y493D02*
X8Y493D01*
X417Y493D02*
X424Y493D01*
X1Y492D02*
X8Y492D01*
X417Y492D02*
X424Y492D01*
X1Y491D02*
X8Y491D01*
X417Y491D02*
X424Y491D01*
X1Y490D02*
X8Y490D01*
X417Y490D02*
X424Y490D01*
X1Y489D02*
X8Y489D01*
X417Y489D02*
X424Y489D01*
X1Y488D02*
X8Y488D01*
X417Y488D02*
X424Y488D01*
X1Y487D02*
X8Y487D01*
X417Y487D02*
X424Y487D01*
X1Y486D02*
X8Y486D01*
X417Y486D02*
X424Y486D01*
X1Y485D02*
X8Y485D01*
X417Y485D02*
X424Y485D01*
X1Y484D02*
X8Y484D01*
X417Y484D02*
X424Y484D01*
X1Y483D02*
X8Y483D01*
X417Y483D02*
X424Y483D01*
X1Y482D02*
X8Y482D01*
X417Y482D02*
X424Y482D01*
X1Y481D02*
X8Y481D01*
X417Y481D02*
X424Y481D01*
X1Y480D02*
X8Y480D01*
X417Y480D02*
X424Y480D01*
X1Y479D02*
X8Y479D01*
X417Y479D02*
X424Y479D01*
X1Y478D02*
X8Y478D01*
X417Y478D02*
X424Y478D01*
X1Y477D02*
X8Y477D01*
X417Y477D02*
X424Y477D01*
X1Y476D02*
X8Y476D01*
X417Y476D02*
X424Y476D01*
X1Y475D02*
X8Y475D01*
X417Y475D02*
X424Y475D01*
X1Y474D02*
X8Y474D01*
X417Y474D02*
X424Y474D01*
X1Y473D02*
X8Y473D01*
X417Y473D02*
X424Y473D01*
X1Y472D02*
X8Y472D01*
X417Y472D02*
X424Y472D01*
X1Y471D02*
X8Y471D01*
X417Y471D02*
X424Y471D01*
X1Y470D02*
X8Y470D01*
X417Y470D02*
X424Y470D01*
X1Y469D02*
X8Y469D01*
X417Y469D02*
X424Y469D01*
X1Y468D02*
X8Y468D01*
X417Y468D02*
X424Y468D01*
X1Y467D02*
X8Y467D01*
X417Y467D02*
X424Y467D01*
X1Y466D02*
X8Y466D01*
X417Y466D02*
X424Y466D01*
X1Y465D02*
X8Y465D01*
X417Y465D02*
X424Y465D01*
X1Y464D02*
X8Y464D01*
X417Y464D02*
X424Y464D01*
X1Y463D02*
X8Y463D01*
X417Y463D02*
X424Y463D01*
X1Y462D02*
X8Y462D01*
X417Y462D02*
X424Y462D01*
X1Y461D02*
X8Y461D01*
X417Y461D02*
X424Y461D01*
X1Y460D02*
X8Y460D01*
X417Y460D02*
X424Y460D01*
X1Y459D02*
X8Y459D01*
X417Y459D02*
X424Y459D01*
X1Y458D02*
X8Y458D01*
X417Y458D02*
X424Y458D01*
X1Y457D02*
X8Y457D01*
X417Y457D02*
X424Y457D01*
X1Y456D02*
X8Y456D01*
X417Y456D02*
X424Y456D01*
X1Y455D02*
X8Y455D01*
X417Y455D02*
X424Y455D01*
X1Y454D02*
X8Y454D01*
X417Y454D02*
X424Y454D01*
X1Y453D02*
X8Y453D01*
X417Y453D02*
X424Y453D01*
X1Y452D02*
X8Y452D01*
X417Y452D02*
X424Y452D01*
X1Y451D02*
X8Y451D01*
X417Y451D02*
X424Y451D01*
X1Y450D02*
X8Y450D01*
X417Y450D02*
X424Y450D01*
X1Y449D02*
X8Y449D01*
X417Y449D02*
X424Y449D01*
X1Y448D02*
X8Y448D01*
X417Y448D02*
X424Y448D01*
X1Y447D02*
X8Y447D01*
X417Y447D02*
X424Y447D01*
X1Y446D02*
X8Y446D01*
X417Y446D02*
X424Y446D01*
X1Y445D02*
X8Y445D01*
X417Y445D02*
X424Y445D01*
X1Y444D02*
X8Y444D01*
X417Y444D02*
X424Y444D01*
X1Y443D02*
X8Y443D01*
X417Y443D02*
X424Y443D01*
X1Y442D02*
X8Y442D01*
X417Y442D02*
X424Y442D01*
X1Y441D02*
X8Y441D01*
X417Y441D02*
X424Y441D01*
X1Y440D02*
X8Y440D01*
X417Y440D02*
X424Y440D01*
X1Y439D02*
X8Y439D01*
X417Y439D02*
X424Y439D01*
X1Y438D02*
X8Y438D01*
X417Y438D02*
X424Y438D01*
X1Y437D02*
X8Y437D01*
X417Y437D02*
X424Y437D01*
X1Y436D02*
X8Y436D01*
X417Y436D02*
X424Y436D01*
X1Y435D02*
X8Y435D01*
X417Y435D02*
X424Y435D01*
X1Y434D02*
X8Y434D01*
X417Y434D02*
X424Y434D01*
X1Y433D02*
X8Y433D01*
X417Y433D02*
X424Y433D01*
X1Y432D02*
X8Y432D01*
X417Y432D02*
X424Y432D01*
X1Y431D02*
X8Y431D01*
X417Y431D02*
X424Y431D01*
X1Y430D02*
X8Y430D01*
X417Y430D02*
X424Y430D01*
X1Y429D02*
X8Y429D01*
X417Y429D02*
X424Y429D01*
X1Y428D02*
X8Y428D01*
X417Y428D02*
X424Y428D01*
X1Y427D02*
X8Y427D01*
X417Y427D02*
X424Y427D01*
X1Y426D02*
X8Y426D01*
X417Y426D02*
X424Y426D01*
X1Y425D02*
X8Y425D01*
X417Y425D02*
X424Y425D01*
X1Y424D02*
X8Y424D01*
X417Y424D02*
X424Y424D01*
X1Y423D02*
X8Y423D01*
X417Y423D02*
X424Y423D01*
X1Y422D02*
X8Y422D01*
X417Y422D02*
X424Y422D01*
X1Y421D02*
X8Y421D01*
X417Y421D02*
X424Y421D01*
X1Y420D02*
X8Y420D01*
X417Y420D02*
X424Y420D01*
X1Y419D02*
X8Y419D01*
X417Y419D02*
X424Y419D01*
X1Y418D02*
X8Y418D01*
X417Y418D02*
X424Y418D01*
X1Y417D02*
X8Y417D01*
X417Y417D02*
X424Y417D01*
X1Y416D02*
X8Y416D01*
X417Y416D02*
X424Y416D01*
X1Y415D02*
X8Y415D01*
X417Y415D02*
X424Y415D01*
X1Y414D02*
X8Y414D01*
X417Y414D02*
X424Y414D01*
X1Y413D02*
X8Y413D01*
X417Y413D02*
X424Y413D01*
X1Y412D02*
X8Y412D01*
X253Y412D02*
X262Y412D01*
X417Y412D02*
X424Y412D01*
X1Y411D02*
X8Y411D01*
X253Y411D02*
X262Y411D01*
X417Y411D02*
X424Y411D01*
X1Y410D02*
X8Y410D01*
X253Y410D02*
X262Y410D01*
X417Y410D02*
X424Y410D01*
X1Y409D02*
X8Y409D01*
X198Y409D02*
X208Y409D01*
X253Y409D02*
X262Y409D01*
X417Y409D02*
X424Y409D01*
X1Y408D02*
X8Y408D01*
X198Y408D02*
X211Y408D01*
X253Y408D02*
X262Y408D01*
X417Y408D02*
X424Y408D01*
X1Y407D02*
X8Y407D01*
X198Y407D02*
X214Y407D01*
X253Y407D02*
X262Y407D01*
X417Y407D02*
X424Y407D01*
X1Y406D02*
X8Y406D01*
X197Y406D02*
X216Y406D01*
X253Y406D02*
X262Y406D01*
X417Y406D02*
X424Y406D01*
X1Y405D02*
X8Y405D01*
X197Y405D02*
X218Y405D01*
X253Y405D02*
X262Y405D01*
X417Y405D02*
X424Y405D01*
X1Y404D02*
X8Y404D01*
X196Y404D02*
X220Y404D01*
X253Y404D02*
X262Y404D01*
X417Y404D02*
X424Y404D01*
X1Y403D02*
X8Y403D01*
X196Y403D02*
X221Y403D01*
X253Y403D02*
X262Y403D01*
X417Y403D02*
X424Y403D01*
X1Y402D02*
X8Y402D01*
X196Y402D02*
X223Y402D01*
X253Y402D02*
X262Y402D01*
X417Y402D02*
X424Y402D01*
X1Y401D02*
X8Y401D01*
X198Y401D02*
X224Y401D01*
X253Y401D02*
X262Y401D01*
X417Y401D02*
X424Y401D01*
X1Y400D02*
X8Y400D01*
X201Y400D02*
X226Y400D01*
X253Y400D02*
X262Y400D01*
X417Y400D02*
X424Y400D01*
X1Y399D02*
X8Y399D01*
X208Y399D02*
X227Y399D01*
X253Y399D02*
X262Y399D01*
X417Y399D02*
X424Y399D01*
X1Y398D02*
X8Y398D01*
X211Y398D02*
X228Y398D01*
X253Y398D02*
X262Y398D01*
X417Y398D02*
X424Y398D01*
X1Y397D02*
X8Y397D01*
X213Y397D02*
X229Y397D01*
X253Y397D02*
X262Y397D01*
X417Y397D02*
X424Y397D01*
X1Y396D02*
X8Y396D01*
X215Y396D02*
X230Y396D01*
X253Y396D02*
X262Y396D01*
X417Y396D02*
X424Y396D01*
X1Y395D02*
X8Y395D01*
X217Y395D02*
X231Y395D01*
X253Y395D02*
X262Y395D01*
X417Y395D02*
X424Y395D01*
X1Y394D02*
X8Y394D01*
X219Y394D02*
X232Y394D01*
X253Y394D02*
X262Y394D01*
X417Y394D02*
X424Y394D01*
X1Y393D02*
X8Y393D01*
X220Y393D02*
X233Y393D01*
X253Y393D02*
X262Y393D01*
X417Y393D02*
X424Y393D01*
X1Y392D02*
X8Y392D01*
X221Y392D02*
X234Y392D01*
X253Y392D02*
X262Y392D01*
X417Y392D02*
X424Y392D01*
X1Y391D02*
X8Y391D01*
X222Y391D02*
X235Y391D01*
X253Y391D02*
X262Y391D01*
X417Y391D02*
X424Y391D01*
X1Y390D02*
X8Y390D01*
X223Y390D02*
X236Y390D01*
X253Y390D02*
X262Y390D01*
X417Y390D02*
X424Y390D01*
X1Y389D02*
X8Y389D01*
X224Y389D02*
X236Y389D01*
X253Y389D02*
X262Y389D01*
X417Y389D02*
X424Y389D01*
X1Y388D02*
X8Y388D01*
X225Y388D02*
X237Y388D01*
X253Y388D02*
X262Y388D01*
X417Y388D02*
X424Y388D01*
X1Y387D02*
X8Y387D01*
X226Y387D02*
X238Y387D01*
X253Y387D02*
X262Y387D01*
X417Y387D02*
X424Y387D01*
X1Y386D02*
X8Y386D01*
X227Y386D02*
X239Y386D01*
X253Y386D02*
X262Y386D01*
X417Y386D02*
X424Y386D01*
X1Y385D02*
X8Y385D01*
X228Y385D02*
X239Y385D01*
X253Y385D02*
X262Y385D01*
X417Y385D02*
X424Y385D01*
X1Y384D02*
X8Y384D01*
X229Y384D02*
X240Y384D01*
X253Y384D02*
X262Y384D01*
X417Y384D02*
X424Y384D01*
X1Y383D02*
X8Y383D01*
X230Y383D02*
X241Y383D01*
X253Y383D02*
X262Y383D01*
X417Y383D02*
X424Y383D01*
X1Y382D02*
X8Y382D01*
X230Y382D02*
X241Y382D01*
X253Y382D02*
X262Y382D01*
X417Y382D02*
X424Y382D01*
X1Y381D02*
X8Y381D01*
X231Y381D02*
X242Y381D01*
X253Y381D02*
X262Y381D01*
X417Y381D02*
X424Y381D01*
X1Y380D02*
X8Y380D01*
X232Y380D02*
X242Y380D01*
X253Y380D02*
X262Y380D01*
X417Y380D02*
X424Y380D01*
X1Y379D02*
X8Y379D01*
X232Y379D02*
X243Y379D01*
X253Y379D02*
X262Y379D01*
X417Y379D02*
X424Y379D01*
X1Y378D02*
X8Y378D01*
X233Y378D02*
X243Y378D01*
X253Y378D02*
X262Y378D01*
X417Y378D02*
X424Y378D01*
X1Y377D02*
X8Y377D01*
X234Y377D02*
X244Y377D01*
X253Y377D02*
X262Y377D01*
X417Y377D02*
X424Y377D01*
X1Y376D02*
X8Y376D01*
X234Y376D02*
X245Y376D01*
X253Y376D02*
X262Y376D01*
X417Y376D02*
X424Y376D01*
X1Y375D02*
X8Y375D01*
X235Y375D02*
X245Y375D01*
X253Y375D02*
X262Y375D01*
X417Y375D02*
X424Y375D01*
X1Y374D02*
X8Y374D01*
X235Y374D02*
X245Y374D01*
X253Y374D02*
X262Y374D01*
X417Y374D02*
X424Y374D01*
X1Y373D02*
X8Y373D01*
X236Y373D02*
X246Y373D01*
X253Y373D02*
X262Y373D01*
X417Y373D02*
X424Y373D01*
X1Y372D02*
X8Y372D01*
X236Y372D02*
X246Y372D01*
X253Y372D02*
X262Y372D01*
X417Y372D02*
X424Y372D01*
X1Y371D02*
X8Y371D01*
X237Y371D02*
X247Y371D01*
X253Y371D02*
X262Y371D01*
X417Y371D02*
X424Y371D01*
X1Y370D02*
X8Y370D01*
X237Y370D02*
X247Y370D01*
X253Y370D02*
X262Y370D01*
X417Y370D02*
X424Y370D01*
X1Y369D02*
X8Y369D01*
X238Y369D02*
X248Y369D01*
X253Y369D02*
X262Y369D01*
X417Y369D02*
X424Y369D01*
X1Y368D02*
X8Y368D01*
X238Y368D02*
X248Y368D01*
X253Y368D02*
X262Y368D01*
X417Y368D02*
X424Y368D01*
X1Y367D02*
X8Y367D01*
X239Y367D02*
X248Y367D01*
X253Y367D02*
X262Y367D01*
X417Y367D02*
X424Y367D01*
X1Y366D02*
X8Y366D01*
X239Y366D02*
X249Y366D01*
X253Y366D02*
X262Y366D01*
X417Y366D02*
X424Y366D01*
X1Y365D02*
X8Y365D01*
X240Y365D02*
X249Y365D01*
X253Y365D02*
X262Y365D01*
X417Y365D02*
X424Y365D01*
X1Y364D02*
X8Y364D01*
X240Y364D02*
X249Y364D01*
X417Y364D02*
X424Y364D01*
X1Y363D02*
X8Y363D01*
X240Y363D02*
X245Y363D01*
X417Y363D02*
X424Y363D01*
X1Y362D02*
X8Y362D01*
X241Y362D02*
X242Y362D01*
X417Y362D02*
X424Y362D01*
X1Y361D02*
X8Y361D01*
X417Y361D02*
X424Y361D01*
X1Y360D02*
X8Y360D01*
X417Y360D02*
X424Y360D01*
X1Y359D02*
X8Y359D01*
X417Y359D02*
X424Y359D01*
X1Y358D02*
X8Y358D01*
X417Y358D02*
X424Y358D01*
X1Y357D02*
X8Y357D01*
X417Y357D02*
X424Y357D01*
X1Y356D02*
X8Y356D01*
X417Y356D02*
X424Y356D01*
X1Y355D02*
X8Y355D01*
X417Y355D02*
X424Y355D01*
X1Y354D02*
X8Y354D01*
X417Y354D02*
X424Y354D01*
X1Y353D02*
X8Y353D01*
X417Y353D02*
X424Y353D01*
X1Y352D02*
X8Y352D01*
X417Y352D02*
X424Y352D01*
X1Y351D02*
X8Y351D01*
X417Y351D02*
X424Y351D01*
X1Y350D02*
X8Y350D01*
X417Y350D02*
X424Y350D01*
X1Y349D02*
X8Y349D01*
X417Y349D02*
X424Y349D01*
X1Y348D02*
X8Y348D01*
X417Y348D02*
X424Y348D01*
X1Y347D02*
X8Y347D01*
X417Y347D02*
X424Y347D01*
X1Y346D02*
X8Y346D01*
X417Y346D02*
X424Y346D01*
X1Y345D02*
X8Y345D01*
X417Y345D02*
X424Y345D01*
X1Y344D02*
X8Y344D01*
X417Y344D02*
X424Y344D01*
X1Y343D02*
X8Y343D01*
X417Y343D02*
X424Y343D01*
X1Y342D02*
X8Y342D01*
X417Y342D02*
X424Y342D01*
X1Y341D02*
X8Y341D01*
X417Y341D02*
X424Y341D01*
X1Y340D02*
X8Y340D01*
X417Y340D02*
X424Y340D01*
X1Y339D02*
X8Y339D01*
X417Y339D02*
X424Y339D01*
X1Y338D02*
X8Y338D01*
X417Y338D02*
X424Y338D01*
X1Y337D02*
X8Y337D01*
X417Y337D02*
X424Y337D01*
X1Y336D02*
X8Y336D01*
X417Y336D02*
X424Y336D01*
X1Y335D02*
X8Y335D01*
X417Y335D02*
X424Y335D01*
X1Y334D02*
X8Y334D01*
X417Y334D02*
X424Y334D01*
X1Y333D02*
X8Y333D01*
X417Y333D02*
X424Y333D01*
X1Y332D02*
X8Y332D01*
X417Y332D02*
X424Y332D01*
X1Y331D02*
X8Y331D01*
X417Y331D02*
X424Y331D01*
X1Y330D02*
X8Y330D01*
X417Y330D02*
X424Y330D01*
X1Y329D02*
X8Y329D01*
X417Y329D02*
X424Y329D01*
X1Y328D02*
X8Y328D01*
X417Y328D02*
X424Y328D01*
X1Y327D02*
X8Y327D01*
X417Y327D02*
X424Y327D01*
X1Y326D02*
X8Y326D01*
X417Y326D02*
X424Y326D01*
X1Y325D02*
X8Y325D01*
X417Y325D02*
X424Y325D01*
X1Y324D02*
X8Y324D01*
X417Y324D02*
X424Y324D01*
X1Y323D02*
X8Y323D01*
X417Y323D02*
X424Y323D01*
X1Y322D02*
X8Y322D01*
X417Y322D02*
X424Y322D01*
X1Y321D02*
X8Y321D01*
X417Y321D02*
X424Y321D01*
X1Y320D02*
X8Y320D01*
X417Y320D02*
X424Y320D01*
X1Y319D02*
X8Y319D01*
X417Y319D02*
X424Y319D01*
X1Y318D02*
X8Y318D01*
X417Y318D02*
X424Y318D01*
X1Y317D02*
X8Y317D01*
X417Y317D02*
X424Y317D01*
X1Y316D02*
X8Y316D01*
X417Y316D02*
X424Y316D01*
X1Y315D02*
X8Y315D01*
X417Y315D02*
X424Y315D01*
X1Y314D02*
X8Y314D01*
X417Y314D02*
X424Y314D01*
X1Y313D02*
X8Y313D01*
X417Y313D02*
X424Y313D01*
X1Y312D02*
X8Y312D01*
X417Y312D02*
X424Y312D01*
X1Y311D02*
X8Y311D01*
X417Y311D02*
X424Y311D01*
X1Y310D02*
X8Y310D01*
X417Y310D02*
X424Y310D01*
X1Y309D02*
X8Y309D01*
X417Y309D02*
X424Y309D01*
X1Y308D02*
X8Y308D01*
X417Y308D02*
X424Y308D01*
X1Y307D02*
X8Y307D01*
X417Y307D02*
X424Y307D01*
X1Y306D02*
X8Y306D01*
X417Y306D02*
X424Y306D01*
X1Y305D02*
X8Y305D01*
X417Y305D02*
X424Y305D01*
X1Y304D02*
X8Y304D01*
X417Y304D02*
X424Y304D01*
X1Y303D02*
X8Y303D01*
X417Y303D02*
X424Y303D01*
X1Y302D02*
X8Y302D01*
X417Y302D02*
X424Y302D01*
X1Y301D02*
X8Y301D01*
X417Y301D02*
X424Y301D01*
X1Y300D02*
X8Y300D01*
X417Y300D02*
X424Y300D01*
X1Y299D02*
X8Y299D01*
X417Y299D02*
X424Y299D01*
X1Y298D02*
X8Y298D01*
X417Y298D02*
X424Y298D01*
X1Y297D02*
X8Y297D01*
X417Y297D02*
X424Y297D01*
X1Y296D02*
X8Y296D01*
X417Y296D02*
X424Y296D01*
X1Y295D02*
X8Y295D01*
X417Y295D02*
X424Y295D01*
X1Y294D02*
X8Y294D01*
X417Y294D02*
X424Y294D01*
X1Y293D02*
X8Y293D01*
X417Y293D02*
X424Y293D01*
X1Y292D02*
X8Y292D01*
X417Y292D02*
X424Y292D01*
X1Y291D02*
X8Y291D01*
X417Y291D02*
X424Y291D01*
X1Y290D02*
X8Y290D01*
X417Y290D02*
X424Y290D01*
X1Y289D02*
X8Y289D01*
X417Y289D02*
X424Y289D01*
X1Y288D02*
X8Y288D01*
X417Y288D02*
X424Y288D01*
X1Y287D02*
X8Y287D01*
X417Y287D02*
X424Y287D01*
X1Y286D02*
X8Y286D01*
X417Y286D02*
X424Y286D01*
X1Y285D02*
X8Y285D01*
X417Y285D02*
X424Y285D01*
X1Y284D02*
X8Y284D01*
X417Y284D02*
X424Y284D01*
X1Y283D02*
X8Y283D01*
X417Y283D02*
X424Y283D01*
X1Y282D02*
X8Y282D01*
X242Y282D02*
X244Y282D01*
X417Y282D02*
X424Y282D01*
X1Y281D02*
X8Y281D01*
X242Y281D02*
X248Y281D01*
X417Y281D02*
X424Y281D01*
X1Y280D02*
X8Y280D01*
X241Y280D02*
X251Y280D01*
X417Y280D02*
X424Y280D01*
X1Y279D02*
X8Y279D01*
X241Y279D02*
X251Y279D01*
X417Y279D02*
X424Y279D01*
X1Y278D02*
X8Y278D01*
X241Y278D02*
X250Y278D01*
X417Y278D02*
X424Y278D01*
X1Y277D02*
X8Y277D01*
X240Y277D02*
X250Y277D01*
X417Y277D02*
X424Y277D01*
X1Y276D02*
X8Y276D01*
X240Y276D02*
X249Y276D01*
X417Y276D02*
X424Y276D01*
X1Y275D02*
X8Y275D01*
X239Y275D02*
X249Y275D01*
X417Y275D02*
X424Y275D01*
X1Y274D02*
X8Y274D01*
X239Y274D02*
X249Y274D01*
X417Y274D02*
X424Y274D01*
X1Y273D02*
X8Y273D01*
X239Y273D02*
X248Y273D01*
X417Y273D02*
X424Y273D01*
X1Y272D02*
X8Y272D01*
X238Y272D02*
X248Y272D01*
X417Y272D02*
X424Y272D01*
X1Y271D02*
X8Y271D01*
X238Y271D02*
X248Y271D01*
X417Y271D02*
X424Y271D01*
X1Y270D02*
X8Y270D01*
X237Y270D02*
X247Y270D01*
X417Y270D02*
X424Y270D01*
X1Y269D02*
X8Y269D01*
X237Y269D02*
X247Y269D01*
X417Y269D02*
X424Y269D01*
X1Y268D02*
X8Y268D01*
X236Y268D02*
X246Y268D01*
X417Y268D02*
X424Y268D01*
X1Y267D02*
X8Y267D01*
X236Y267D02*
X246Y267D01*
X417Y267D02*
X424Y267D01*
X1Y266D02*
X8Y266D01*
X235Y266D02*
X245Y266D01*
X417Y266D02*
X424Y266D01*
X1Y265D02*
X8Y265D01*
X235Y265D02*
X245Y265D01*
X417Y265D02*
X424Y265D01*
X1Y264D02*
X8Y264D01*
X234Y264D02*
X244Y264D01*
X417Y264D02*
X424Y264D01*
X1Y263D02*
X8Y263D01*
X233Y263D02*
X244Y263D01*
X417Y263D02*
X424Y263D01*
X1Y262D02*
X8Y262D01*
X233Y262D02*
X243Y262D01*
X417Y262D02*
X424Y262D01*
X1Y261D02*
X8Y261D01*
X232Y261D02*
X243Y261D01*
X417Y261D02*
X424Y261D01*
X1Y260D02*
X8Y260D01*
X231Y260D02*
X242Y260D01*
X417Y260D02*
X424Y260D01*
X1Y259D02*
X8Y259D01*
X231Y259D02*
X242Y259D01*
X417Y259D02*
X424Y259D01*
X1Y258D02*
X8Y258D01*
X230Y258D02*
X241Y258D01*
X417Y258D02*
X424Y258D01*
X1Y257D02*
X8Y257D01*
X229Y257D02*
X240Y257D01*
X417Y257D02*
X424Y257D01*
X1Y256D02*
X8Y256D01*
X228Y256D02*
X240Y256D01*
X417Y256D02*
X424Y256D01*
X1Y255D02*
X8Y255D01*
X228Y255D02*
X239Y255D01*
X417Y255D02*
X424Y255D01*
X1Y254D02*
X8Y254D01*
X227Y254D02*
X238Y254D01*
X417Y254D02*
X424Y254D01*
X1Y253D02*
X8Y253D01*
X226Y253D02*
X238Y253D01*
X417Y253D02*
X424Y253D01*
X1Y252D02*
X8Y252D01*
X225Y252D02*
X237Y252D01*
X417Y252D02*
X424Y252D01*
X1Y251D02*
X8Y251D01*
X224Y251D02*
X236Y251D01*
X417Y251D02*
X424Y251D01*
X1Y250D02*
X8Y250D01*
X223Y250D02*
X235Y250D01*
X417Y250D02*
X424Y250D01*
X1Y249D02*
X8Y249D01*
X222Y249D02*
X234Y249D01*
X417Y249D02*
X424Y249D01*
X1Y248D02*
X8Y248D01*
X221Y248D02*
X234Y248D01*
X417Y248D02*
X424Y248D01*
X1Y247D02*
X8Y247D01*
X219Y247D02*
X233Y247D01*
X417Y247D02*
X424Y247D01*
X1Y246D02*
X8Y246D01*
X218Y246D02*
X232Y246D01*
X417Y246D02*
X424Y246D01*
X1Y245D02*
X8Y245D01*
X216Y245D02*
X231Y245D01*
X417Y245D02*
X424Y245D01*
X1Y244D02*
X8Y244D01*
X215Y244D02*
X230Y244D01*
X417Y244D02*
X424Y244D01*
X1Y243D02*
X8Y243D01*
X212Y243D02*
X229Y243D01*
X417Y243D02*
X424Y243D01*
X1Y242D02*
X8Y242D01*
X210Y242D02*
X228Y242D01*
X417Y242D02*
X424Y242D01*
X1Y241D02*
X8Y241D01*
X206Y241D02*
X226Y241D01*
X417Y241D02*
X424Y241D01*
X1Y240D02*
X8Y240D01*
X199Y240D02*
X225Y240D01*
X417Y240D02*
X424Y240D01*
X1Y239D02*
X8Y239D01*
X198Y239D02*
X224Y239D01*
X417Y239D02*
X424Y239D01*
X1Y238D02*
X8Y238D01*
X198Y238D02*
X222Y238D01*
X417Y238D02*
X424Y238D01*
X1Y237D02*
X8Y237D01*
X198Y237D02*
X221Y237D01*
X417Y237D02*
X424Y237D01*
X1Y236D02*
X8Y236D01*
X198Y236D02*
X219Y236D01*
X417Y236D02*
X424Y236D01*
X1Y235D02*
X8Y235D01*
X199Y235D02*
X217Y235D01*
X417Y235D02*
X424Y235D01*
X1Y234D02*
X8Y234D01*
X199Y234D02*
X215Y234D01*
X417Y234D02*
X424Y234D01*
X1Y233D02*
X8Y233D01*
X199Y233D02*
X213Y233D01*
X417Y233D02*
X424Y233D01*
X1Y232D02*
X8Y232D01*
X199Y232D02*
X210Y232D01*
X417Y232D02*
X424Y232D01*
X1Y231D02*
X8Y231D01*
X200Y231D02*
X206Y231D01*
X417Y231D02*
X424Y231D01*
X1Y230D02*
X8Y230D01*
X417Y230D02*
X424Y230D01*
X1Y229D02*
X8Y229D01*
X417Y229D02*
X424Y229D01*
X1Y228D02*
X8Y228D01*
X417Y228D02*
X424Y228D01*
X1Y227D02*
X8Y227D01*
X417Y227D02*
X424Y227D01*
X1Y226D02*
X8Y226D01*
X417Y226D02*
X424Y226D01*
X1Y225D02*
X8Y225D01*
X417Y225D02*
X424Y225D01*
X1Y224D02*
X8Y224D01*
X417Y224D02*
X424Y224D01*
X1Y223D02*
X8Y223D01*
X417Y223D02*
X424Y223D01*
X1Y222D02*
X8Y222D01*
X417Y222D02*
X424Y222D01*
X1Y221D02*
X8Y221D01*
X417Y221D02*
X424Y221D01*
X1Y220D02*
X8Y220D01*
X417Y220D02*
X424Y220D01*
X1Y219D02*
X8Y219D01*
X417Y219D02*
X424Y219D01*
X1Y218D02*
X8Y218D01*
X417Y218D02*
X424Y218D01*
X1Y217D02*
X8Y217D01*
X417Y217D02*
X424Y217D01*
X1Y216D02*
X8Y216D01*
X417Y216D02*
X424Y216D01*
X1Y215D02*
X8Y215D01*
X417Y215D02*
X424Y215D01*
X1Y214D02*
X8Y214D01*
X417Y214D02*
X424Y214D01*
X1Y213D02*
X8Y213D01*
X417Y213D02*
X424Y213D01*
X1Y212D02*
X8Y212D01*
X417Y212D02*
X424Y212D01*
X1Y211D02*
X8Y211D01*
X417Y211D02*
X424Y211D01*
X1Y210D02*
X8Y210D01*
X417Y210D02*
X424Y210D01*
X1Y209D02*
X8Y209D01*
X417Y209D02*
X424Y209D01*
X1Y208D02*
X8Y208D01*
X417Y208D02*
X424Y208D01*
X1Y207D02*
X8Y207D01*
X417Y207D02*
X424Y207D01*
X1Y206D02*
X8Y206D01*
X417Y206D02*
X424Y206D01*
X1Y205D02*
X8Y205D01*
X417Y205D02*
X424Y205D01*
X1Y204D02*
X8Y204D01*
X417Y204D02*
X424Y204D01*
X1Y203D02*
X8Y203D01*
X417Y203D02*
X424Y203D01*
X1Y202D02*
X8Y202D01*
X417Y202D02*
X424Y202D01*
X1Y201D02*
X8Y201D01*
X417Y201D02*
X424Y201D01*
X1Y200D02*
X8Y200D01*
X417Y200D02*
X424Y200D01*
X1Y199D02*
X8Y199D01*
X417Y199D02*
X424Y199D01*
X1Y198D02*
X8Y198D01*
X417Y198D02*
X424Y198D01*
X1Y197D02*
X8Y197D01*
X417Y197D02*
X424Y197D01*
X1Y196D02*
X8Y196D01*
X417Y196D02*
X424Y196D01*
X1Y195D02*
X8Y195D01*
X417Y195D02*
X424Y195D01*
X1Y194D02*
X8Y194D01*
X417Y194D02*
X424Y194D01*
X1Y193D02*
X8Y193D01*
X417Y193D02*
X424Y193D01*
X1Y192D02*
X8Y192D01*
X417Y192D02*
X424Y192D01*
X1Y191D02*
X8Y191D01*
X417Y191D02*
X424Y191D01*
X1Y190D02*
X8Y190D01*
X417Y190D02*
X424Y190D01*
X1Y189D02*
X8Y189D01*
X417Y189D02*
X424Y189D01*
X1Y188D02*
X8Y188D01*
X417Y188D02*
X424Y188D01*
X1Y187D02*
X8Y187D01*
X417Y187D02*
X424Y187D01*
X1Y186D02*
X8Y186D01*
X417Y186D02*
X424Y186D01*
X1Y185D02*
X8Y185D01*
X417Y185D02*
X424Y185D01*
X1Y184D02*
X8Y184D01*
X417Y184D02*
X424Y184D01*
X1Y183D02*
X8Y183D01*
X417Y183D02*
X424Y183D01*
X1Y182D02*
X8Y182D01*
X417Y182D02*
X424Y182D01*
X1Y181D02*
X8Y181D01*
X417Y181D02*
X424Y181D01*
X1Y180D02*
X8Y180D01*
X417Y180D02*
X424Y180D01*
X1Y179D02*
X8Y179D01*
X417Y179D02*
X424Y179D01*
X1Y178D02*
X8Y178D01*
X417Y178D02*
X424Y178D01*
X1Y177D02*
X8Y177D01*
X417Y177D02*
X424Y177D01*
X1Y176D02*
X8Y176D01*
X417Y176D02*
X424Y176D01*
X1Y175D02*
X8Y175D01*
X417Y175D02*
X424Y175D01*
X1Y174D02*
X8Y174D01*
X417Y174D02*
X424Y174D01*
X1Y173D02*
X8Y173D01*
X274Y173D02*
X275Y173D01*
X417Y173D02*
X424Y173D01*
X1Y172D02*
X8Y172D01*
X273Y172D02*
X276Y172D01*
X417Y172D02*
X424Y172D01*
X1Y171D02*
X8Y171D01*
X272Y171D02*
X277Y171D01*
X417Y171D02*
X424Y171D01*
X1Y170D02*
X8Y170D01*
X272Y170D02*
X278Y170D01*
X417Y170D02*
X424Y170D01*
X1Y169D02*
X8Y169D01*
X273Y169D02*
X279Y169D01*
X417Y169D02*
X424Y169D01*
X1Y168D02*
X8Y168D01*
X274Y168D02*
X280Y168D01*
X417Y168D02*
X424Y168D01*
X1Y167D02*
X8Y167D01*
X275Y167D02*
X281Y167D01*
X417Y167D02*
X424Y167D01*
X1Y166D02*
X8Y166D01*
X276Y166D02*
X282Y166D01*
X417Y166D02*
X424Y166D01*
X1Y165D02*
X8Y165D01*
X277Y165D02*
X283Y165D01*
X417Y165D02*
X424Y165D01*
X1Y164D02*
X8Y164D01*
X278Y164D02*
X284Y164D01*
X417Y164D02*
X424Y164D01*
X1Y163D02*
X8Y163D01*
X279Y163D02*
X285Y163D01*
X417Y163D02*
X424Y163D01*
X1Y162D02*
X8Y162D01*
X280Y162D02*
X286Y162D01*
X417Y162D02*
X424Y162D01*
X1Y161D02*
X8Y161D01*
X281Y161D02*
X287Y161D01*
X417Y161D02*
X424Y161D01*
X1Y160D02*
X8Y160D01*
X282Y160D02*
X288Y160D01*
X417Y160D02*
X424Y160D01*
X1Y159D02*
X8Y159D01*
X283Y159D02*
X289Y159D01*
X417Y159D02*
X424Y159D01*
X1Y158D02*
X8Y158D01*
X284Y158D02*
X290Y158D01*
X417Y158D02*
X424Y158D01*
X1Y157D02*
X8Y157D01*
X285Y157D02*
X291Y157D01*
X417Y157D02*
X424Y157D01*
X1Y156D02*
X8Y156D01*
X287Y156D02*
X292Y156D01*
X417Y156D02*
X424Y156D01*
X1Y155D02*
X8Y155D01*
X288Y155D02*
X293Y155D01*
X417Y155D02*
X424Y155D01*
X1Y154D02*
X8Y154D01*
X289Y154D02*
X294Y154D01*
X417Y154D02*
X424Y154D01*
X1Y153D02*
X8Y153D01*
X290Y153D02*
X295Y153D01*
X417Y153D02*
X424Y153D01*
X1Y152D02*
X8Y152D01*
X291Y152D02*
X296Y152D01*
X417Y152D02*
X424Y152D01*
X1Y151D02*
X8Y151D01*
X292Y151D02*
X297Y151D01*
X417Y151D02*
X424Y151D01*
X1Y150D02*
X8Y150D01*
X292Y150D02*
X298Y150D01*
X417Y150D02*
X424Y150D01*
X1Y149D02*
X8Y149D01*
X293Y149D02*
X299Y149D01*
X417Y149D02*
X424Y149D01*
X1Y148D02*
X8Y148D01*
X294Y148D02*
X300Y148D01*
X417Y148D02*
X424Y148D01*
X1Y147D02*
X8Y147D01*
X295Y147D02*
X301Y147D01*
X417Y147D02*
X424Y147D01*
X1Y146D02*
X8Y146D01*
X296Y146D02*
X302Y146D01*
X417Y146D02*
X424Y146D01*
X1Y145D02*
X8Y145D01*
X297Y145D02*
X303Y145D01*
X417Y145D02*
X424Y145D01*
X1Y144D02*
X8Y144D01*
X298Y144D02*
X304Y144D01*
X417Y144D02*
X424Y144D01*
X1Y143D02*
X8Y143D01*
X299Y143D02*
X305Y143D01*
X417Y143D02*
X424Y143D01*
X1Y142D02*
X8Y142D01*
X300Y142D02*
X306Y142D01*
X417Y142D02*
X424Y142D01*
X1Y141D02*
X8Y141D01*
X301Y141D02*
X307Y141D01*
X417Y141D02*
X424Y141D01*
X1Y140D02*
X8Y140D01*
X302Y140D02*
X308Y140D01*
X417Y140D02*
X424Y140D01*
X1Y139D02*
X8Y139D01*
X303Y139D02*
X309Y139D01*
X417Y139D02*
X424Y139D01*
X1Y138D02*
X8Y138D01*
X304Y138D02*
X308Y138D01*
X417Y138D02*
X424Y138D01*
X1Y137D02*
X8Y137D01*
X305Y137D02*
X307Y137D01*
X417Y137D02*
X424Y137D01*
X1Y136D02*
X8Y136D01*
X417Y136D02*
X424Y136D01*
X1Y135D02*
X8Y135D01*
X417Y135D02*
X424Y135D01*
X1Y134D02*
X8Y134D01*
X417Y134D02*
X424Y134D01*
X1Y133D02*
X8Y133D01*
X417Y133D02*
X424Y133D01*
X1Y132D02*
X8Y132D01*
X417Y132D02*
X424Y132D01*
X1Y131D02*
X8Y131D01*
X417Y131D02*
X424Y131D01*
X1Y130D02*
X8Y130D01*
X417Y130D02*
X424Y130D01*
X1Y129D02*
X8Y129D01*
X417Y129D02*
X424Y129D01*
X1Y128D02*
X8Y128D01*
X417Y128D02*
X424Y128D01*
X1Y127D02*
X8Y127D01*
X417Y127D02*
X424Y127D01*
X1Y126D02*
X8Y126D01*
X417Y126D02*
X424Y126D01*
X1Y125D02*
X8Y125D01*
X417Y125D02*
X424Y125D01*
X1Y124D02*
X8Y124D01*
X417Y124D02*
X424Y124D01*
X1Y123D02*
X8Y123D01*
X417Y123D02*
X424Y123D01*
X1Y122D02*
X8Y122D01*
X417Y122D02*
X424Y122D01*
X1Y121D02*
X8Y121D01*
X417Y121D02*
X424Y121D01*
X1Y120D02*
X8Y120D01*
X417Y120D02*
X424Y120D01*
X1Y119D02*
X8Y119D01*
X417Y119D02*
X424Y119D01*
X1Y118D02*
X8Y118D01*
X417Y118D02*
X424Y118D01*
X1Y117D02*
X8Y117D01*
X417Y117D02*
X424Y117D01*
X1Y116D02*
X8Y116D01*
X417Y116D02*
X424Y116D01*
X1Y115D02*
X8Y115D01*
X417Y115D02*
X424Y115D01*
X1Y114D02*
X8Y114D01*
X417Y114D02*
X424Y114D01*
X1Y113D02*
X8Y113D01*
X417Y113D02*
X424Y113D01*
X1Y112D02*
X8Y112D01*
X417Y112D02*
X424Y112D01*
X1Y111D02*
X8Y111D01*
X417Y111D02*
X424Y111D01*
X1Y110D02*
X8Y110D01*
X417Y110D02*
X424Y110D01*
X1Y109D02*
X8Y109D01*
X417Y109D02*
X424Y109D01*
X1Y108D02*
X8Y108D01*
X417Y108D02*
X424Y108D01*
X1Y107D02*
X8Y107D01*
X417Y107D02*
X424Y107D01*
X1Y106D02*
X8Y106D01*
X417Y106D02*
X424Y106D01*
X1Y105D02*
X8Y105D01*
X417Y105D02*
X424Y105D01*
X1Y104D02*
X8Y104D01*
X417Y104D02*
X424Y104D01*
X1Y103D02*
X8Y103D01*
X417Y103D02*
X424Y103D01*
X1Y102D02*
X8Y102D01*
X417Y102D02*
X424Y102D01*
X1Y101D02*
X8Y101D01*
X417Y101D02*
X424Y101D01*
X1Y100D02*
X8Y100D01*
X417Y100D02*
X424Y100D01*
X1Y99D02*
X8Y99D01*
X417Y99D02*
X424Y99D01*
X1Y98D02*
X8Y98D01*
X417Y98D02*
X424Y98D01*
X1Y97D02*
X8Y97D01*
X417Y97D02*
X424Y97D01*
X1Y96D02*
X8Y96D01*
X417Y96D02*
X424Y96D01*
X1Y95D02*
X8Y95D01*
X417Y95D02*
X424Y95D01*
X1Y94D02*
X8Y94D01*
X417Y94D02*
X424Y94D01*
X1Y93D02*
X8Y93D01*
X417Y93D02*
X424Y93D01*
X1Y92D02*
X8Y92D01*
X417Y92D02*
X424Y92D01*
X1Y91D02*
X8Y91D01*
X417Y91D02*
X424Y91D01*
X1Y90D02*
X8Y90D01*
X417Y90D02*
X424Y90D01*
X1Y89D02*
X8Y89D01*
X417Y89D02*
X424Y89D01*
X1Y88D02*
X8Y88D01*
X417Y88D02*
X424Y88D01*
X1Y87D02*
X8Y87D01*
X417Y87D02*
X424Y87D01*
X1Y86D02*
X8Y86D01*
X417Y86D02*
X424Y86D01*
X1Y85D02*
X8Y85D01*
X417Y85D02*
X424Y85D01*
X1Y84D02*
X8Y84D01*
X417Y84D02*
X424Y84D01*
X1Y83D02*
X8Y83D01*
X417Y83D02*
X424Y83D01*
X1Y82D02*
X8Y82D01*
X417Y82D02*
X424Y82D01*
X1Y81D02*
X8Y81D01*
X417Y81D02*
X424Y81D01*
X1Y80D02*
X8Y80D01*
X417Y80D02*
X424Y80D01*
X1Y79D02*
X8Y79D01*
X417Y79D02*
X424Y79D01*
X1Y78D02*
X8Y78D01*
X417Y78D02*
X424Y78D01*
X1Y77D02*
X8Y77D01*
X417Y77D02*
X424Y77D01*
X1Y76D02*
X8Y76D01*
X417Y76D02*
X424Y76D01*
X1Y75D02*
X8Y75D01*
X417Y75D02*
X424Y75D01*
X1Y74D02*
X8Y74D01*
X417Y74D02*
X424Y74D01*
X1Y73D02*
X8Y73D01*
X417Y73D02*
X424Y73D01*
X1Y72D02*
X8Y72D01*
X417Y72D02*
X424Y72D01*
X1Y71D02*
X8Y71D01*
X417Y71D02*
X424Y71D01*
X1Y70D02*
X8Y70D01*
X417Y70D02*
X424Y70D01*
X1Y69D02*
X8Y69D01*
X417Y69D02*
X424Y69D01*
X1Y68D02*
X8Y68D01*
X417Y68D02*
X424Y68D01*
X1Y67D02*
X8Y67D01*
X417Y67D02*
X424Y67D01*
X1Y66D02*
X8Y66D01*
X417Y66D02*
X424Y66D01*
X1Y65D02*
X8Y65D01*
X417Y65D02*
X424Y65D01*
X1Y64D02*
X8Y64D01*
X417Y64D02*
X424Y64D01*
X1Y63D02*
X8Y63D01*
X417Y63D02*
X424Y63D01*
X1Y62D02*
X8Y62D01*
X417Y62D02*
X424Y62D01*
X1Y61D02*
X8Y61D01*
X417Y61D02*
X424Y61D01*
X1Y60D02*
X8Y60D01*
X417Y60D02*
X424Y60D01*
X1Y59D02*
X8Y59D01*
X417Y59D02*
X424Y59D01*
X1Y58D02*
X8Y58D01*
X417Y58D02*
X424Y58D01*
X1Y57D02*
X8Y57D01*
X417Y57D02*
X424Y57D01*
X1Y56D02*
X8Y56D01*
X417Y56D02*
X424Y56D01*
X1Y55D02*
X8Y55D01*
X417Y55D02*
X424Y55D01*
X1Y54D02*
X8Y54D01*
X417Y54D02*
X424Y54D01*
X1Y53D02*
X8Y53D01*
X417Y53D02*
X424Y53D01*
X1Y52D02*
X8Y52D01*
X417Y52D02*
X424Y52D01*
X1Y51D02*
X8Y51D01*
X417Y51D02*
X424Y51D01*
X1Y50D02*
X8Y50D01*
X417Y50D02*
X424Y50D01*
X1Y49D02*
X8Y49D01*
X417Y49D02*
X424Y49D01*
X1Y48D02*
X8Y48D01*
X417Y48D02*
X424Y48D01*
X1Y47D02*
X8Y47D01*
X417Y47D02*
X424Y47D01*
X1Y46D02*
X8Y46D01*
X417Y46D02*
X424Y46D01*
X1Y45D02*
X8Y45D01*
X417Y45D02*
X424Y45D01*
X1Y44D02*
X8Y44D01*
X417Y44D02*
X424Y44D01*
X1Y43D02*
X8Y43D01*
X417Y43D02*
X424Y43D01*
X1Y42D02*
X8Y42D01*
X417Y42D02*
X424Y42D01*
X1Y41D02*
X8Y41D01*
X417Y41D02*
X424Y41D01*
X1Y40D02*
X8Y40D01*
X417Y40D02*
X424Y40D01*
X1Y39D02*
X8Y39D01*
X417Y39D02*
X424Y39D01*
X1Y38D02*
X8Y38D01*
X417Y38D02*
X424Y38D01*
X1Y37D02*
X8Y37D01*
X417Y37D02*
X424Y37D01*
X1Y36D02*
X8Y36D01*
X417Y36D02*
X424Y36D01*
X1Y35D02*
X8Y35D01*
X417Y35D02*
X424Y35D01*
X1Y34D02*
X8Y34D01*
X417Y34D02*
X424Y34D01*
X1Y33D02*
X8Y33D01*
X417Y33D02*
X424Y33D01*
X1Y32D02*
X8Y32D01*
X417Y32D02*
X424Y32D01*
X1Y31D02*
X8Y31D01*
X417Y31D02*
X424Y31D01*
X1Y30D02*
X8Y30D01*
X417Y30D02*
X424Y30D01*
X1Y29D02*
X8Y29D01*
X417Y29D02*
X424Y29D01*
X1Y28D02*
X8Y28D01*
X417Y28D02*
X424Y28D01*
X1Y27D02*
X8Y27D01*
X417Y27D02*
X424Y27D01*
X1Y26D02*
X8Y26D01*
X417Y26D02*
X424Y26D01*
X1Y25D02*
X8Y25D01*
X417Y25D02*
X424Y25D01*
X1Y24D02*
X8Y24D01*
X417Y24D02*
X424Y24D01*
X1Y23D02*
X8Y23D01*
X417Y23D02*
X424Y23D01*
X1Y22D02*
X8Y22D01*
X417Y22D02*
X424Y22D01*
X1Y21D02*
X8Y21D01*
X417Y21D02*
X424Y21D01*
X1Y20D02*
X8Y20D01*
X417Y20D02*
X424Y20D01*
X1Y19D02*
X8Y19D01*
X417Y19D02*
X424Y19D01*
X1Y18D02*
X8Y18D01*
X417Y18D02*
X424Y18D01*
X1Y17D02*
X8Y17D01*
X417Y17D02*
X424Y17D01*
X1Y16D02*
X8Y16D01*
X417Y16D02*
X424Y16D01*
X1Y15D02*
X8Y15D01*
X417Y15D02*
X424Y15D01*
X1Y14D02*
X8Y14D01*
X417Y14D02*
X424Y14D01*
X1Y13D02*
X8Y13D01*
X417Y13D02*
X424Y13D01*
X1Y12D02*
X8Y12D01*
X417Y12D02*
X424Y12D01*
X1Y11D02*
X8Y11D01*
X417Y11D02*
X424Y11D01*
X1Y10D02*
X8Y10D01*
X417Y10D02*
X424Y10D01*
X1Y9D02*
X8Y9D01*
X417Y9D02*
X424Y9D01*
X1Y8D02*
X424Y8D01*
X1Y7D02*
X424Y7D01*
X1Y6D02*
X424Y6D01*
X1Y5D02*
X424Y5D01*
X1Y4D02*
X424Y4D01*
X1Y3D02*
X424Y3D01*
X1Y2D02*
X424Y2D01*
X1Y1D02*
X424Y1D01*
D02*
G04 End of Silk1*
M02*