<?xml version='1.0' encoding='UTF-8' standalone='no'?>
<!-- Created with Fritzing (https://fritzing.org/) -->
<svg xmlns="http://www.w3.org/2000/svg" x="0in" y="0in" version="1.2" height="1.10235in" xmlns:svg="http://www.w3.org/2000/svg" baseProfile="tiny" viewBox="0 0 30.564 79.3689"  width="0.4245in">
 <g transform="matrix(-1, 0, 0, 1, 30.564, 0)">
  <g partID="130380">
   <g transform="translate(30.564,0)">
    <g transform="matrix(0,1,-1,0,0,0)">
     <g id="board" >
      <rect x="0.288" y="0.288" fill="none" id="boardoutline" height="29.988" stroke="black" fill-opacity="0.5" stroke-width="0.5"  width="78.7929"/>
     </g>
    </g>
   </g>
  </g>
  <g partID="127721">
   <g transform="translate(23.574,25.2229)">
    <g transform="matrix(-1,0,0,-1,0,0)">
     <g id="copper1" gorn="0.3" >
      <g id="copper0" gorn="0.3.0" >
       <rect x="2.952" y="2.952" fill="none" stroke-opacity="1" id="rect4188" height="4.176" stroke="black" style="stroke-miterlimit:4;stroke-dasharray:none;" fill-opacity="1" gorn="0.3.0.0" stroke-width="1.44"  width="4.176"/>
       <circle fill="none" cx="5.04" stroke-opacity="1" id="connector0pin" stroke="black" cy="5.04" style="stroke-miterlimit:4;stroke-dasharray:none;" gorn="0.3.0.1" stroke-width="1.44"  r="2.088"/>
       <circle fill="none" cx="5.04" stroke-opacity="1" id="connector1pin" stroke="black" cy="12.24" gorn="0.3.0.2" stroke-width="1.44"  r="2.088"/>
       <circle fill="none" cx="5.04" stroke-opacity="1" id="connector2pin" stroke="black" cy="19.44" gorn="0.3.0.3" stroke-width="1.44"  r="2.088"/>
      </g>
     </g>
    </g>
   </g>
  </g>
  <g partID="126811">
   <g transform="translate(23.574,65.5429)">
    <g transform="matrix(0,1,-1,0,0,0)">
     <g id="copper1" >
      <g id="copper0" >
       <circle cx="5.04" fill="none" id="connector0pin" cy="5.04" stroke="black" stroke-width="1.44"  r="2.088"/>
       <circle cx="5.04" fill="none" id="connector1pin" cy="12.24" stroke="black" stroke-width="1.44"  r="2.088"/>
      </g>
     </g>
    </g>
   </g>
  </g>
  <g partID="94231">
   <g transform="translate(21.63,24.6829)">
    <g transform="matrix(1.11022e-16,1,-1,1.11022e-16,0,0)">
     <g id="copper1" >
      <!-- <rect width="55" x="10" y="15.5" fill="none" height="55" stroke="rgb(255, 191, 0)" stroke-width="20" />  -->
      <circle fill="none" cx="2.7" id="connector0pin" cy="3.096" stroke="black" stroke-width="1.44"  r="1.98"/>
      <circle fill="none" cx="31.5" id="connector1pin" cy="3.096" stroke="black" stroke-width="1.44"  r="1.98"/>
     </g>
    </g>
   </g>
  </g>
  <g partID="93101">
   <g transform="translate(3.126,66.9829)">
    <g transform="matrix(0,-1,1,0,0,0)">
     <g id="copper1" >
      <g id="copper0" >
       <circle cx="3.6" fill="none" id="connector0pin" cy="8.208" stroke="black" stroke-width="1.44"  r="1.98"/>
       <circle cx="10.8" fill="none" id="connector1pin" cy="8.208" stroke="black" stroke-width="1.44"  r="1.98"/>
       <circle cx="18" fill="none" id="connector2pin" cy="8.208" stroke="black" stroke-width="1.44"  r="1.98"/>
      </g>
     </g>
    </g>
   </g>
  </g>
  <g partID="127970">
   <line stroke-linecap="round" x1="11.3444" stroke="black" y2="12.9531" x2="17.1663" stroke-width="1.728" y1="12.8265"/>
  </g>
  <g partID="127900">
   <line stroke-linecap="round" x1="11.3344" stroke="black" y2="12.8265" x2="11.3444" stroke-width="1.728" y1="47.7229"/>
  </g>
  <g partID="127830">
   <line stroke-linecap="round" x1="18.534" stroke="black" y2="26.1229" x2="18.534" stroke-width="1.728" y1="21.5509"/>
  </g>
  <g partID="128110">
   <line stroke-linecap="round" x1="4.25" stroke="black" y2="5.77805" x2="17.166" stroke-width="1.728" y1="5.7324"/>
  </g>
  <g partID="128380">
   <line stroke-linecap="round" x1="4.0852" stroke="black" y2="5.73232" x2="4.2499" stroke-width="1.728" y1="70.5341"/>
  </g>
  <g partID="128040">
   <line stroke-linecap="round" x1="9.96603" stroke="black" y2="70.5342" x2="4.0853" stroke-width="1.728" y1="70.5737"/>
  </g>
  <g partID="110470">
   <line stroke-linecap="round" x1="25.766" stroke="black" y2="48.9264" x2="18.4784" stroke-width="1.728" y1="56.2142"/>
  </g>
  <g partID="110400">
   <line stroke-linecap="round" x1="18.478" stroke="black" y2="56.2142" x2="25.7656" stroke-width="1.728" y1="70.6437"/>
  </g>
  <g partID="110260">
   <line stroke-linecap="round" x1="18.478" stroke="black" y2="55.285" x2="12.218" stroke-width="1.728" y1="48.9264"/>
  </g>
  <g partID="110190">
   <line stroke-linecap="round" x1="17.6072" stroke="black" y2="70.6437" x2="18.478" stroke-width="1.728" y1="71.5891"/>
  </g>
  <g partID="109880">
   <line stroke-linecap="round" x1="12.225" stroke="black" y2="57.0738" x2="17.643" stroke-width="1.728" y1="62.4919"/>
  </g>
 </g>
</svg>
